<svg xmlns="http://www.w3.org/2000/svg" width="464" height="466" viewBox="0 0 464 466">
  <g id="Group_1414" data-name="Group 1414" transform="translate(0.102 -0.046)">
    <g id="Ellipse_73" data-name="Ellipse 73" transform="translate(3.898 5.046)" fill="#fcfcfc" stroke="#e5e5e5" stroke-width="1">
      <circle cx="228" cy="228" r="228" stroke="none"/>
      <circle cx="228" cy="228" r="227.5" fill="none"/>
    </g>
    <g id="Ellipse_74" data-name="Ellipse 74" transform="translate(11.898 13.046)" fill="#fcfcfc" stroke="#e5e5e5" stroke-width="1">
      <circle cx="220" cy="220" r="220" stroke="none"/>
      <circle cx="220" cy="220" r="219.5" fill="none"/>
    </g>
    <g id="Ellipse_75" data-name="Ellipse 75" transform="translate(19.898 21.046)" fill="#fcfcfc" stroke="#e5e5e5" stroke-width="1">
      <circle cx="212" cy="212" r="212" stroke="none"/>
      <circle cx="212" cy="212" r="211.5" fill="none"/>
    </g>
    <ellipse id="Ellipse_76" data-name="Ellipse 76" cx="5" cy="4.5" rx="5" ry="4.5" transform="translate(226.898 0.046)" fill="#e8e8e8"/>
    <ellipse id="Ellipse_77" data-name="Ellipse 77" cx="5" cy="4.5" rx="5" ry="4.5" transform="translate(226.898 457.046)" fill="#e8e8e8"/>
    <circle id="Ellipse_78" data-name="Ellipse 78" cx="4.5" cy="4.5" r="4.5" transform="translate(454.898 210.046)" fill="#e8e8e8"/>
    <circle id="Ellipse_79" data-name="Ellipse 79" cx="4.5" cy="4.5" r="4.5" transform="translate(-0.102 210.046)" fill="#e8e8e8"/>
    <circle id="Ellipse_80" data-name="Ellipse 80" cx="4.5" cy="4.5" r="4.5" transform="translate(68.898 76.046)" fill="#e8e8e8"/>
    <circle id="Ellipse_81" data-name="Ellipse 81" cx="4.5" cy="4.5" r="4.5" transform="translate(58.898 370.046)" fill="#e8e8e8"/>
    <circle id="Ellipse_82" data-name="Ellipse 82" cx="4.5" cy="4.5" r="4.5" transform="translate(394.898 370.046)" fill="#e8e8e8"/>
    <circle id="Ellipse_83" data-name="Ellipse 83" cx="4.5" cy="4.5" r="4.5" transform="translate(385.898 76.046)" fill="#e8e8e8"/>
    <circle id="Ellipse_84" data-name="Ellipse 84" cx="4.5" cy="4.5" r="4.5" transform="translate(419.898 141.046)" fill="#e8e8e8"/>
    <circle id="Ellipse_85" data-name="Ellipse 85" cx="4.5" cy="4.5" r="4.5" transform="translate(300.898 30.046)" fill="#e8e8e8"/>
    <circle id="Ellipse_86" data-name="Ellipse 86" cx="4.5" cy="4.5" r="4.5" transform="translate(135.898 38.046)" fill="#e8e8e8"/>
    <ellipse id="Ellipse_87" data-name="Ellipse 87" cx="5" cy="4.5" rx="5" ry="4.5" transform="translate(32.898 146.046)" fill="#e8e8e8"/>
    <circle id="Ellipse_88" data-name="Ellipse 88" cx="4.5" cy="4.5" r="4.5" transform="translate(22.898 286.046)" fill="#e8e8e8"/>
    <circle id="Ellipse_89" data-name="Ellipse 89" cx="4.5" cy="4.5" r="4.5" transform="translate(129.898 417.046)" fill="#e8e8e8"/>
    <circle id="Ellipse_90" data-name="Ellipse 90" cx="4.5" cy="4.5" r="4.5" transform="translate(313.898 421.046)" fill="#e8e8e8"/>
    <circle id="Ellipse_91" data-name="Ellipse 91" cx="4.5" cy="4.5" r="4.5" transform="translate(431.898 286.046)" fill="#e8e8e8"/>
    <g id="Layer_2" data-name="Layer 2" transform="translate(130.902 81.046)">
      <g id="Layer_1" data-name="Layer 1" transform="translate(-0.004 0)">
        <path id="Path_974" data-name="Path 974" d="M101.279,0A101.282,101.282,0,0,0,23.643,166.313L84.4,253.724a18.821,18.821,0,0,0,33.831,0l60.713-87.412A101.282,101.282,0,0,0,101.279,0Z" transform="translate(0.009 0)" fill="#2b3990"/>
        <path id="Path_975" data-name="Path 975" d="M57.879,43.56s-1.688,17.5-20.158,40.133C30.688,92.3,23.05,100.714,16.79,109.449a78.3,78.3,0,0,0,4.023,9.847C35.738,91.247,61.368,64.829,57.879,43.56Z" transform="translate(6.834 17.715)" fill="#d83968"/>
        <path id="Path_976" data-name="Path 976" d="M56.8,22.49A79.239,79.239,0,0,0,16,110.9C34.007,86.621,57.977,56.63,56.8,22.49Z" transform="translate(5.667 9.146)" fill="#d83968"/>
        <path id="Path_977" data-name="Path 977" d="M57.315,127.5C78.261,95.986,99.839,54.432,62.281,19.49l-1.238.45c5.036,7.3,21.916,37.108-5.655,73.907-12.041,16.121-23.717,31.425-31.088,46.2a79.619,79.619,0,0,0,24.9,22.746C46.709,154.7,47.032,142.969,57.315,127.5Z" transform="translate(9.888 7.926)" fill="#d83968"/>
        <path id="Path_978" data-name="Path 978" d="M73.7,140.769C84.575,108.415,112.793,49.474,58.5,18.26h0c3.123,2.265,27.388,20.735,24.772,54.762C80.862,104.307,44.991,136.97,47.157,167a78.774,78.774,0,0,0,29.358,6.865C71.648,168.213,67.85,158.113,73.7,140.769Z" transform="translate(19.146 7.426)" fill="#d83968"/>
        <path id="Path_979" data-name="Path 979" d="M80.087,174.491c6.344-36.729,43.242-35.266,50.908-38.811,8.088-3.728,2.813-11.254,0-16.191s2.813-5.627,1.547-9.664-5.908-2.18-5.908-2.18,5.908-4.67,5.908-7.779-3.418-4.051-7.16-5.092-10.114-7.765-2.18-11.732c9.973-4.98,11.676-9.847,5.767-12.927-5.05-2.659-13.575-3.249-28.907-21.776,3.531-4.079,7.033-10.789,3.362-19.525,0,0,1.66,10.747-6.654,15.4-1.7-2.208-3.475-4.628-5.331-7.287-7.329-10.438-15.375-16.8-23-20.552,1.646-.1,3.32-.169,5.008-.169a79.281,79.281,0,0,1,6.64,158.281Z" transform="translate(27.84 6.592)" fill="#e6e7e8"/>
        <path id="Path_980" data-name="Path 980" d="M3.462,191.232a.521.521,0,0,1,.591.591v10.55a7.667,7.667,0,0,0,.169,1.758,2.448,2.448,0,0,0,.563,1.111,2.195,2.195,0,0,0,1.083.591,7.146,7.146,0,0,0,1.7.169H18.289a.521.521,0,0,1,.577.577V209.2a.52.52,0,0,1-.577.577H7.415A13.883,13.883,0,0,1,4,209.406,5.19,5.19,0,0,1,1.7,208.2,4.909,4.909,0,0,1,.41,206.03,11.324,11.324,0,0,1,0,202.795V191.837a.52.52,0,0,1,.6-.591Z" transform="translate(0.004 77.769)" fill="#2b3990"/>
        <path id="Path_981" data-name="Path 981" d="M26.967,194.075a12.661,12.661,0,0,1,2.982.309,4.628,4.628,0,0,1,1.955.957A3.686,3.686,0,0,1,32.945,197a8.44,8.44,0,0,1,.309,2.448v7.033a5.346,5.346,0,0,1-.084,1.041,1.407,1.407,0,0,1-.324.647,1.153,1.153,0,0,1-.591.323,3.63,3.63,0,0,1-.957.1H18.71a6.936,6.936,0,0,1-1.941-.225,2.814,2.814,0,0,1-1.266-.675,2.588,2.588,0,0,1-.675-1.168,6.541,6.541,0,0,1-.2-1.688V203.57a5.289,5.289,0,0,1,.2-1.477A2.814,2.814,0,0,1,15.5,201a3.193,3.193,0,0,1,1.266-.675,7.513,7.513,0,0,1,1.941-.225H29.471V199.6a4.22,4.22,0,0,0-.127-1.1,1.407,1.407,0,0,0-.45-.717,2.011,2.011,0,0,0-.872-.408,5.725,5.725,0,0,0-1.407-.141H15.53a.422.422,0,0,1-.478-.478v-2.223a.436.436,0,0,1,.478-.478Zm1.744,11.619a.717.717,0,0,0,.591-.2,1.1,1.1,0,0,0,.169-.7v-2.377H19.793a1.66,1.66,0,0,0-1.153.324,1.407,1.407,0,0,0-.324.971v.549a1.505,1.505,0,0,0,.324,1.055,1.66,1.66,0,0,0,1.153.324Z" transform="translate(5.956 78.921)" fill="#2b3990"/>
        <path id="Path_982" data-name="Path 982" d="M32.118,194.071a.563.563,0,0,1,.6.436l3.432,10.874a.281.281,0,0,0,.267.183h.1c.155,0,.253-.07.267-.183l3.587-10a2.138,2.138,0,0,1,.619-1,1.73,1.73,0,0,1,1.069-.281h3.151a1.73,1.73,0,0,1,1.069.281,2.138,2.138,0,0,1,.619,1l3.545,10.03a.239.239,0,0,0,.267.183h.113a.253.253,0,0,0,.253-.183l3.362-10.9c0-.3.253-.436.6-.436H58.1a.464.464,0,0,1,.436.183.633.633,0,0,1,0,.464l-4.023,12.238a2.532,2.532,0,0,1-.76,1.322,2.138,2.138,0,0,1-1.28.324h-3.32a1.407,1.407,0,0,1-1.055-.352,3.446,3.446,0,0,1-.717-1.294l-3.489-9.65a.225.225,0,0,0-.239-.155H43.5c-.141,0-.225,0-.239.155l-3.475,9.65a3.671,3.671,0,0,1-.7,1.294,1.491,1.491,0,0,1-1.069.352H34.749a2.18,2.18,0,0,1-1.28-.324,2.63,2.63,0,0,1-.76-1.322l-3.967-12.238a.647.647,0,0,1,0-.464c0-.112.211-.183.45-.183Z" transform="translate(11.678 78.925)" fill="#2b3990"/>
        <path id="Path_983" data-name="Path 983" d="M53.989,194.071a.563.563,0,0,1,.6.436l3.418,10.874a.3.3,0,0,0,.267.183h.1c.169,0,.253-.07.267-.183l3.629-10a2.138,2.138,0,0,1,.619-1,1.73,1.73,0,0,1,1.069-.281h3.151a1.73,1.73,0,0,1,1.069.281,2.265,2.265,0,0,1,.633,1l3.545,10.03c0,.113.1.183.253.183h.113a.3.3,0,0,0,.267-.183l3.5-10.9c0-.3.253-.436.6-.436h3a.464.464,0,0,1,.436.183.577.577,0,0,1,0,.464L76.5,206.957a2.532,2.532,0,0,1-.76,1.322,2.138,2.138,0,0,1-1.28.324H71.08a1.407,1.407,0,0,1-1.055-.352,3.658,3.658,0,0,1-.717-1.294l-3.489-9.65a.225.225,0,0,0-.239-.155h-.155c-.141,0-.225,0-.239.155l-3.46,9.65a3.882,3.882,0,0,1-.717,1.294,1.491,1.491,0,0,1-1.069.352h-3.32a2.194,2.194,0,0,1-1.294-.324,2.63,2.63,0,0,1-.746-1.322l-3.967-12.238a.647.647,0,0,1,0-.464c0-.113.2-.183.436-.183Z" transform="translate(20.572 78.925)" fill="#2b3990"/>
        <path id="Path_984" data-name="Path 984" d="M85.087,194.075a12.661,12.661,0,0,1,2.982.309,4.487,4.487,0,0,1,1.913,1,3.587,3.587,0,0,1,1.055,1.66,8.44,8.44,0,0,1,.309,2.448v7.033a5.346,5.346,0,0,1-.084,1.041,1.407,1.407,0,0,1-.324.647,1.21,1.21,0,0,1-.591.324,3.63,3.63,0,0,1-.957.1H76.83a6.935,6.935,0,0,1-1.941-.225,2.813,2.813,0,0,1-1.266-.675,2.588,2.588,0,0,1-.675-1.168,6.542,6.542,0,0,1-.2-1.688v-1.266a5.29,5.29,0,0,1,.2-1.477,2.814,2.814,0,0,1,.675-1.1,3.193,3.193,0,0,1,1.266-.675,7.51,7.51,0,0,1,1.941-.225H87.591V199.6a4.22,4.22,0,0,0-.127-1.1,1.407,1.407,0,0,0-.45-.717,2.012,2.012,0,0,0-.872-.408,5.726,5.726,0,0,0-1.407-.141H73.65a.422.422,0,0,1-.478-.478v-2.223a.436.436,0,0,1,.478-.478Zm1.744,11.619a.717.717,0,0,0,.591-.2,1.1,1.1,0,0,0,.169-.7v-2.377H77.913a1.66,1.66,0,0,0-1.154.324,1.308,1.308,0,0,0-.324.971v.549a1.407,1.407,0,0,0,.324,1.055,1.66,1.66,0,0,0,1.153.324Z" transform="translate(29.592 78.921)" fill="#2b3990"/>
        <path id="Path_985" data-name="Path 985" d="M91.183,201.77c.394,0,.591.183.591.577v2.56a.52.52,0,0,1-.591.577H88.595c-.408,0-.6-.2-.6-.577v-2.546c0-.394.2-.577.6-.577Z" transform="translate(35.79 82.058)" fill="#2b3990"/>
        <path id="Path_986" data-name="Path 986" d="M105.231,191.23a3.193,3.193,0,0,1,1.688.422,4.22,4.22,0,0,1,1.407,1.59l8.693,15.952a.52.52,0,0,1,.07.436q0,.169-.38.169h-3.362a.591.591,0,0,1-.6-.352l-1.885-3.4H98.422l-1.829,3.4a.633.633,0,0,1-.6.352H92.542c-.225,0-.366,0-.408-.169a.577.577,0,0,1,.07-.436l8.679-15.91a4.375,4.375,0,0,1,1.294-1.59,2.616,2.616,0,0,1,1.491-.422Zm-5.134,11.7h9.1l-4.22-7.751a.338.338,0,0,0-.3-.2h-.07a.338.338,0,0,0-.3.2Z" transform="translate(37.47 77.771)" fill="#2b3990"/>
        <path id="Path_987" data-name="Path 987" d="M128.205,194.071a.422.422,0,0,1,.478.478v2.124a.422.422,0,0,1-.478.478H116.277a1.674,1.674,0,0,0-1.139.3,1.2,1.2,0,0,0-.324.886v.408a1.111,1.111,0,0,0,.324.83,1.674,1.674,0,0,0,1.139.3H125.2a4.5,4.5,0,0,1,3.179.928,3.489,3.489,0,0,1,.942,2.616V204.9a5.373,5.373,0,0,1-.211,1.561,2.56,2.56,0,0,1-.7,1.153,3.066,3.066,0,0,1-1.28.732,6.542,6.542,0,0,1-1.955.253H111.621a.422.422,0,0,1-.478-.478v-2.11a.422.422,0,0,1,.478-.478h12.534a1.73,1.73,0,0,0,1.153-.3,1.224,1.224,0,0,0,.338-.971v-.717a1,1,0,0,0-.338-.816,1.73,1.73,0,0,0-1.153-.3h-8.89a4.5,4.5,0,0,1-3.165-.914,3.517,3.517,0,0,1-.957-2.659V197.7a4.965,4.965,0,0,1,.211-1.491,2.813,2.813,0,0,1,.7-1.153,3.333,3.333,0,0,1,1.28-.732,7.035,7.035,0,0,1,1.955-.253Z" transform="translate(45.203 78.925)" fill="#2b3990"/>
        <path id="Path_988" data-name="Path 988" d="M129.3,190.262a.506.506,0,0,1,.577.577v2.518c0,.408-.183.6-.577.6h-2.588a.535.535,0,0,1-.619-.6v-2.518c0-.38.211-.577.619-.577Zm0,5.359c.394,0,.577.211.577.619V209.59a.506.506,0,0,1-.577.577h-2.588a.52.52,0,0,1-.591-.577V196.254c0-.408.2-.619.591-.619Z" transform="translate(51.284 77.375)" fill="#2b3990"/>
        <path id="Path_989" data-name="Path 989" d="M143.115,194.075a12.9,12.9,0,0,1,3,.309,4.572,4.572,0,0,1,1.9,1,3.686,3.686,0,0,1,1.041,1.66,8.44,8.44,0,0,1,.324,2.448v7.033a4.345,4.345,0,0,1-.1,1.041,1.407,1.407,0,0,1-.309.647,1.21,1.21,0,0,1-.591.324,3.7,3.7,0,0,1-.957.1H134.76a7.031,7.031,0,0,1-1.955-.225,2.813,2.813,0,0,1-1.252-.675,2.363,2.363,0,0,1-.675-1.168,6.54,6.54,0,0,1-.2-1.688v-1.266a5.289,5.289,0,0,1,.2-1.477,2.49,2.49,0,0,1,.675-1.1,3.038,3.038,0,0,1,1.252-.675,7.539,7.539,0,0,1,1.955-.225h10.761V199.6a4.222,4.222,0,0,0-.127-1.1,1.576,1.576,0,0,0-.45-.717,2.012,2.012,0,0,0-.872-.408,5.881,5.881,0,0,0-1.407-.141H131.693a.422.422,0,0,1-.478-.478V194.54a.422.422,0,0,1,.478-.478Zm1.744,11.619a.746.746,0,0,0,.6-.2,1.1,1.1,0,0,0,.169-.7v-2.377h-9.678a1.632,1.632,0,0,0-1.153.324,1.308,1.308,0,0,0-.338.971v.549a1.407,1.407,0,0,0,.338,1.055,1.632,1.632,0,0,0,1.154.324Z" transform="translate(53.152 78.921)" fill="#2b3990"/>
        <path id="Path_990" data-name="Path 990" d="M2.687,218.356v-3.6L0,209.86H1.252l1.2,2.349c.324.633.577,1.154.844,1.744h0c.239-.549.535-1.111.858-1.744l1.224-2.349H6.626l-2.813,4.881v3.615Z" transform="translate(0.006 85.348)" fill="#d83968"/>
        <path id="Path_991" data-name="Path 991" d="M12.716,214.064c0,2.926-1.772,4.473-3.953,4.473a3.9,3.9,0,0,1-3.756-4.319,4.023,4.023,0,0,1,3.939-4.459,3.868,3.868,0,0,1,3.77,4.3Zm-6.6.141c0,1.815.985,3.432,2.715,3.432s2.729-1.59,2.729-3.531c0-1.688-.886-3.446-2.715-3.446s-2.729,1.674-2.729,3.545Z" transform="translate(2.032 85.307)" fill="#d83968"/>
        <path id="Path_992" data-name="Path 992" d="M12.821,209.86V214.9c0,1.9.844,2.7,1.983,2.7s2.068-.83,2.068-2.7V209.86h1.111v4.952c0,2.616-1.407,3.686-3.221,3.686s-3.053-1-3.053-3.629V209.86Z" transform="translate(4.768 85.348)" fill="#d83968"/>
        <path id="Path_993" data-name="Path 993" d="M17.74,210a11.548,11.548,0,0,1,2.11-.183,3.5,3.5,0,0,1,2.462.7,2.11,2.11,0,0,1,.675,1.6,2.265,2.265,0,0,1-1.6,2.18h0a2.152,2.152,0,0,1,1.238,1.716,12.787,12.787,0,0,0,.661,2.335H22.143a10.959,10.959,0,0,1-.563-2.026c-.253-1.182-.7-1.618-1.7-1.66H18.837v3.686h-1.1Zm1.1,3.868h1.125c1.182,0,1.913-.647,1.913-1.618s-.788-1.575-1.955-1.59a5.163,5.163,0,0,0-1.083.1Z" transform="translate(7.221 85.323)" fill="#d83968"/>
        <path id="Path_994" data-name="Path 994" d="M24.92,209.982a12.938,12.938,0,0,1,2.1-.169,3.446,3.446,0,0,1,2.391.717,2.265,2.265,0,0,1,.746,1.772,2.462,2.462,0,0,1-.661,1.815,3.5,3.5,0,0,1-2.6.928,3.374,3.374,0,0,1-.872-.07v3.4h-1.1Zm1.1,4.093a3.25,3.25,0,0,0,.9.1c1.322,0,2.138-.647,2.138-1.815s-.8-1.674-2.012-1.674a5.12,5.12,0,0,0-1.027.084Z" transform="translate(10.141 85.324)" fill="#d83968"/>
        <path id="Path_995" data-name="Path 995" d="M34.257,214.359H31.007v3.067h3.686v.914H29.91V209.9H34.5v.914H31.007V213.5h3.249Z" transform="translate(12.17 85.364)" fill="#d83968"/>
        <path id="Path_996" data-name="Path 996" d="M34.55,210a11.4,11.4,0,0,1,2.1-.183,3.461,3.461,0,0,1,2.462.7,2.068,2.068,0,0,1,.675,1.6,2.265,2.265,0,0,1-1.6,2.18h0a2.194,2.194,0,0,1,1.252,1.716,13.193,13.193,0,0,0,.647,2.335H38.939a12.294,12.294,0,0,1-.563-2.026c-.253-1.182-.7-1.618-1.7-1.66H35.647v3.686h-1.1Zm1.1,3.868h1.111c1.182,0,1.927-.647,1.927-1.618s-.8-1.575-1.955-1.59a4.936,4.936,0,0,0-1.083.1Z" transform="translate(14.057 85.322)" fill="#d83968"/>
        <path id="Path_997" data-name="Path 997" d="M39.557,217.107a3.868,3.868,0,0,0,1.969.563c1.125,0,1.786-.6,1.786-1.407s-.45-1.252-1.6-1.7c-1.407-.492-2.251-1.21-2.251-2.405a2.448,2.448,0,0,1,2.813-2.307,3.755,3.755,0,0,1,1.885.422l-.309.886a3.348,3.348,0,0,0-1.618-.408c-1.153,0-1.6.7-1.6,1.28,0,.8.52,1.182,1.7,1.646,1.407.549,2.166,1.238,2.166,2.49s-1.027,2.349-3.038,2.349a4.46,4.46,0,0,1-2.166-.535Z" transform="translate(15.985 85.331)" fill="#d83968"/>
        <path id="Path_998" data-name="Path 998" d="M51.652,214.064c0,2.926-1.772,4.473-3.939,4.473a3.9,3.9,0,0,1-3.826-4.319,4.037,4.037,0,0,1,3.953-4.459C50.16,209.76,51.652,211.5,51.652,214.064Zm-6.6.141c0,1.815.985,3.432,2.715,3.432s2.729-1.59,2.729-3.531c0-1.688-.886-3.446-2.715-3.446s-2.729,1.674-2.729,3.545Z" transform="translate(17.845 85.307)" fill="#d83968"/>
        <path id="Path_999" data-name="Path 999" d="M50.64,218.34V209.9h1.2l2.729,4.3a21.27,21.27,0,0,1,1.519,2.813h0c-.1-1.139-.127-2.166-.127-3.489V209.97H57v8.44H55.887l-2.7-4.319a26.306,26.306,0,0,1-1.59-2.813h0c0,1.069.084,2.1.084,3.5v3.629Z" transform="translate(20.601 85.364)" fill="#d83968"/>
        <path id="Path_1000" data-name="Path 1000" d="M58.326,215.667l-.886,2.673H56.3l2.9-8.44H60.52l2.9,8.44H62.25l-.914-2.673Zm2.813-.858-.83-2.448a13.056,13.056,0,0,1-.436-1.547h0c-.127.506-.267,1.013-.436,1.533l-.83,2.462Z" transform="translate(22.902 85.364)" fill="#d83968"/>
        <path id="Path_1001" data-name="Path 1001" d="M62.47,209.86h1.1v7.582h3.643v.914H62.47Z" transform="translate(25.412 85.348)" fill="#d83968"/>
        <path id="Path_1002" data-name="Path 1002" d="M69.06,210a10.636,10.636,0,0,1,2-.183,3.573,3.573,0,0,1,2.335.619,1.758,1.758,0,0,1,.7,1.505,2.026,2.026,0,0,1-1.407,1.871h0a2.209,2.209,0,0,1,1.758,2.138,2.321,2.321,0,0,1-.717,1.7,4.22,4.22,0,0,1-2.94.8,14.3,14.3,0,0,1-1.7-.1Zm1.1,3.475h.985c1.168,0,1.843-.6,1.843-1.407s-.76-1.407-1.871-1.407a4.109,4.109,0,0,0-.957.084Zm0,4.079a5.135,5.135,0,0,0,.914,0c1.139,0,2.18-.422,2.18-1.66s-1-1.59-2.194-1.59h-.9Z" transform="translate(28.092 85.324)" fill="#d83968"/>
        <path id="Path_1003" data-name="Path 1003" d="M78.543,214.359H75.237v3.067h3.686v.914H74.14V209.9h4.586v.914H75.237V213.5h3.306Z" transform="translate(30.158 85.364)" fill="#d83968"/>
        <path id="Path_1004" data-name="Path 1004" d="M80.336,215.667l-.886,2.673H78.31l2.9-8.44H82.53l2.9,8.44H84.26l-.914-2.673Zm2.813-.858-.83-2.448c-.183-.549-.309-1.055-.436-1.547h0c-.127.506-.267,1.013-.436,1.533l-.83,2.462Z" transform="translate(31.854 85.364)" fill="#d83968"/>
        <path id="Path_1005" data-name="Path 1005" d="M85.321,209.86V214.9c0,1.9.844,2.7,1.983,2.7s2.068-.83,2.068-2.7V209.86h1.111v4.952c0,2.616-1.407,3.686-3.221,3.686s-3.053-1-3.053-3.629V209.86Z" transform="translate(34.253 85.348)" fill="#d83968"/>
        <path id="Path_1006" data-name="Path 1006" d="M92.158,210.788H89.57v-.928H95.8v.928H93.27v7.568H92.158Z" transform="translate(36.433 85.348)" fill="#d83968"/>
        <path id="Path_1007" data-name="Path 1007" d="M97.307,218.356v-3.6l-2.687-4.9h1.252l1.2,2.349c.338.633.591,1.154.844,1.744h0c.239-.549.535-1.111.858-1.744l1.224-2.349h1.252l-2.813,4.881v3.615Z" transform="translate(38.487 85.348)" fill="#d83968"/>
        <path id="Path_1008" data-name="Path 1008" d="M103.918,210.788H101.33v-.928h6.3v.928h-2.546v7.568h-1.111Z" transform="translate(41.216 85.348)" fill="#d83968"/>
        <path id="Path_1009" data-name="Path 1009" d="M107.8,209.86v3.559h4.122V209.86h1.111v8.44h-1.111v-3.981H107.8V218.3h-1.1v-8.44Z" transform="translate(43.4 85.348)" fill="#d83968"/>
        <path id="Path_1010" data-name="Path 1010" d="M117.173,214.359h-3.306v3.067h3.686v.914H112.77V209.9h4.544v.914h-3.5V213.5h3.306Z" transform="translate(45.868 85.364)" fill="#d83968"/>
        <path id="Path_1011" data-name="Path 1011" d="M117.41,210a11.4,11.4,0,0,1,2.1-.183,3.461,3.461,0,0,1,2.462.7,2.068,2.068,0,0,1,.675,1.6,2.251,2.251,0,0,1-1.59,2.18h0a2.138,2.138,0,0,1,1.252,1.716,14.617,14.617,0,0,0,.647,2.335h-1.125a10.553,10.553,0,0,1-.577-2.026c-.239-1.182-.7-1.618-1.7-1.66h-1.027v3.686h-1.1Zm1.1,3.868h1.125c1.168,0,1.913-.647,1.913-1.618s-.8-1.575-1.955-1.59a4.936,4.936,0,0,0-1.083.1Z" transform="translate(47.755 85.322)" fill="#d83968"/>
        <path id="Path_1012" data-name="Path 1012" d="M124.082,215.667l-.886,2.673H122l2.813-8.44h1.407l2.9,8.44h-1.182l-.9-2.673Zm2.813-.858-.83-2.448c-.2-.549-.324-1.055-.45-1.547h0c-.127.506-.267,1.013-.436,1.533l-.83,2.462Z" transform="translate(49.622 85.364)" fill="#d83968"/>
        <path id="Path_1013" data-name="Path 1013" d="M128.21,209.982a13.139,13.139,0,0,1,2.11-.169,3.432,3.432,0,0,1,2.377.717,2.265,2.265,0,0,1,.746,1.772,2.5,2.5,0,0,1-.647,1.815,3.545,3.545,0,0,1-2.6.928,3.431,3.431,0,0,1-.886-.07v3.4h-1.1Zm1.1,4.093a3.32,3.32,0,0,0,.9.1c1.407,0,2.138-.647,2.138-1.815s-.788-1.674-2-1.674a5.174,5.174,0,0,0-1.041.084Z" transform="translate(52.147 85.324)" fill="#d83968"/>
        <path id="Path_1014" data-name="Path 1014" d="M134.313,209.86v8.44H133.23v-8.44Z" transform="translate(54.189 85.348)" fill="#d83968"/>
        <path id="Path_1015" data-name="Path 1015" d="M135.521,217.107a3.826,3.826,0,0,0,1.969.563c1.125,0,1.786-.6,1.786-1.407s-.464-1.252-1.6-1.7c-1.407-.492-2.251-1.21-2.251-2.405a2.448,2.448,0,0,1,2.813-2.307,3.7,3.7,0,0,1,1.871.422l-.3.886a3.348,3.348,0,0,0-1.618-.408c-1.154,0-1.6.7-1.6,1.28,0,.8.52,1.182,1.688,1.646,1.407.549,2.166,1.238,2.166,2.49s-.971,2.448-2.968,2.448a4.459,4.459,0,0,1-2.166-.535Z" transform="translate(55.035 85.331)" fill="#d83968"/>
        <path id="Path_1016" data-name="Path 1016" d="M142.108,210.788H139.52v-.928h6.3v.928h-2.6v7.568h-1.111Z" transform="translate(56.747 85.348)" fill="#d83968"/>
      </g>
    </g>
  </g>
</svg>
