<svg xmlns="http://www.w3.org/2000/svg" width="242.82" height="80.938" viewBox="0 0 242.82 80.938">
  <g id="Layer_2" data-name="Layer 2" transform="translate(0.007 -24)">
    <g id="Layer_1" data-name="Layer 1" transform="translate(-0.007 24)">
      <path id="Path_865" data-name="Path 865" d="M31.012,0A31.015,31.015,0,0,0,7.237,50.935L25.852,77.707a5.767,5.767,0,0,0,10.359,0L54.794,50.935A31.015,31.015,0,0,0,31.012,0Z" transform="translate(0.007 0)" fill="#2b3990"/>
      <path id="Path_866" data-name="Path 866" d="M26.756,33.38s-.5,5.357-6.183,12.3c-2.153,2.636-4.5,5.21-6.413,7.869A24.814,24.814,0,0,0,15.4,56.565C19.989,47.988,27.841,39.911,26.756,33.38Z" transform="translate(-6.197 -14.618)" fill="#d83968"/>
      <path id="Path_867" data-name="Path 867" d="M25.129,17.24A24.282,24.282,0,0,0,12.618,44.309C18.177,36.879,25.483,27.695,25.129,17.24Z" transform="translate(-5.245 -7.55)" fill="#d83968"/>
      <path id="Path_868" data-name="Path 868" d="M30.117,48.014C36.5,38.363,43.124,25.649,31.607,14.93l-.377.141c1.54,2.248,6.689,11.365-1.731,22.64-3.687,4.929-7.251,9.617-9.5,14.142a24.518,24.518,0,0,0,7.622,6.958C26.84,56.343,26.942,52.752,30.117,48.014Z" transform="translate(-8.755 -6.538)" fill="#d83968"/>
      <path id="Path_869" data-name="Path 869" d="M45.559,51.518c3.333-9.9,11.978-27.963-4.654-37.518h0a19.11,19.11,0,0,1,7.588,16.767c-.736,9.583-11.719,19.583-11.056,28.761a24.169,24.169,0,0,0,8.993,2.113C44.941,59.921,43.772,56.824,45.559,51.518Z" transform="translate(-16.379 -6.131)" fill="#d83968"/>
      <path id="Path_870" data-name="Path 870" d="M56.019,60.88C57.964,49.638,69.262,50.082,71.611,49c2.479-1.124.86-3.434,0-4.963s.86-1.686.478-2.957-1.815-.669-1.815-.669,1.815-1.428,1.815-2.383-1.051-1.242-2.2-1.557-3.08-2.378-.669-3.6c3.058-1.523,3.58-3,1.765-3.935-1.54-.832-4.176-1.029-8.847-6.689a5.491,5.491,0,0,0,1.029-5.98s.506,3.288-2.035,4.721q-.787-1.023-1.641-2.248a18.874,18.874,0,0,0-7.043-6.3c.511-.034,1.023-.056,1.534-.056a24.282,24.282,0,0,1,2.035,48.49Z" transform="translate(-22.966 -5.426)" fill="#e6e7e8"/>
      <path id="Path_871" data-name="Path 871" d="M132.853,47.047a.427.427,0,0,1,.483.489v8.847a6.307,6.307,0,0,0,.146,1.473,1.962,1.962,0,0,0,.478.933,1.832,1.832,0,0,0,.9.489,5.93,5.93,0,0,0,1.428.146h8.993a.433.433,0,0,1,.489.483v2.175a.433.433,0,0,1-.489.489h-9.117a11.281,11.281,0,0,1-2.855-.309,4.367,4.367,0,0,1-1.922-1.012,4.114,4.114,0,0,1-1.085-1.815,9.319,9.319,0,0,1-.343-2.72V47.536c0-.326.169-.489.511-.489Z" transform="translate(-56.908 -20.601)" fill="#2b3990"/>
      <path id="Path_872" data-name="Path 872" d="M170.955,53a10.6,10.6,0,0,1,2.507.253,3.789,3.789,0,0,1,1.63.8,3.108,3.108,0,0,1,.877,1.4,7.05,7.05,0,0,1,.264,2.052v5.9a4.177,4.177,0,0,1-.079.877,1.152,1.152,0,0,1-.264.562,1.012,1.012,0,0,1-.5.275,3.434,3.434,0,0,1-.8.079H164.047a5.811,5.811,0,0,1-1.63-.191,2.563,2.563,0,0,1-1.057-.562,2.113,2.113,0,0,1-.562-.978,5.258,5.258,0,0,1-.169-1.416V60.979a4.176,4.176,0,0,1,.169-1.231,2.13,2.13,0,0,1,.562-.922,2.563,2.563,0,0,1,1.057-.562,5.811,5.811,0,0,1,1.63-.191h9.027v-.422a3.231,3.231,0,0,0-.112-.9,1.248,1.248,0,0,0-.377-.613,1.686,1.686,0,0,0-.731-.343,5.373,5.373,0,0,0-1.2-.112H161.4a.354.354,0,0,1-.4-.4V53.4a.354.354,0,0,1,.4-.4Zm1.461,9.735a.63.63,0,0,0,.5-.169.893.893,0,0,0,.146-.562V60.034h-8.105a1.343,1.343,0,0,0-.967.275,1.124,1.124,0,0,0-.275.809v.467a1.2,1.2,0,0,0,.275.877,1.371,1.371,0,0,0,.967.275Z" transform="translate(-70.34 -23.208)" fill="#2b3990"/>
      <path id="Path_873" data-name="Path 873" d="M192.967,53a.478.478,0,0,1,.506.354l2.861,9.117a.23.23,0,0,0,.225.152h.09q.2,0,.219-.152l3-8.431a1.872,1.872,0,0,1,.517-.832,1.484,1.484,0,0,1,.882-.208H203.9a1.45,1.45,0,0,1,.894.23,1.827,1.827,0,0,1,.523.832l2.973,8.431q0,.152.219.152h.09a.225.225,0,0,0,.219-.152l2.889-9.117c.039-.236.214-.354.506-.354h2.535c.191,0,.315.045.365.141a.528.528,0,0,1,0,.388l-3.372,10.269a2.142,2.142,0,0,1-.629,1.124,1.816,1.816,0,0,1-1.074.27h-2.81a1.225,1.225,0,0,1-.882-.3,2.985,2.985,0,0,1-.59-1.113l-2.928-8.094a.18.18,0,0,0-.2-.129H202.5c-.118,0-.185.039-.2.129L199.4,63.8a2.985,2.985,0,0,1-.6,1.079,1.237,1.237,0,0,1-.888.3H195.1a1.787,1.787,0,0,1-1.074-.27,2.142,2.142,0,0,1-.63-1.124l-3.311-10.224a.563.563,0,0,1,0-.388c.039-.1.169-.141.377-.141Z" transform="translate(-83.224 -23.207)" fill="#2b3990"/>
      <path id="Path_874" data-name="Path 874" d="M238.927,53a.489.489,0,0,1,.511.354l2.861,9.117a.225.225,0,0,0,.219.152h.09q.2,0,.219-.152l3-8.431a1.872,1.872,0,0,1,.517-.832,1.489,1.489,0,0,1,.9-.208h2.636a1.484,1.484,0,0,1,.9.23,1.927,1.927,0,0,1,.523.832l2.968,8.431c0,.1.09.152.225.152h.09a.225.225,0,0,0,.219-.152l2.883-9.117q.067-.354.506-.354H260.7c.191,0,.315.045.365.141a.5.5,0,0,1,0,.388l-3.372,10.269a2.142,2.142,0,0,1-.635,1.124,1.787,1.787,0,0,1-1.074.27h-2.81a1.237,1.237,0,0,1-.888-.3,2.991,2.991,0,0,1-.545-1.113L248.813,55.7a.191.191,0,0,0-.2-.129h-.135c-.118,0-.18.039-.2.129L245.374,63.8a3.074,3.074,0,0,1-.6,1.079,1.248,1.248,0,0,1-.888.3h-2.81a1.81,1.81,0,0,1-1.079-.27,2.141,2.141,0,0,1-.629-1.124l-3.328-10.224a.562.562,0,0,1,0-.388c.045-.1.169-.141.377-.141Z" transform="translate(-103.351 -23.205)" fill="#2b3990"/>
      <path id="Path_875" data-name="Path 875" d="M292.885,53a10.565,10.565,0,0,1,2.507.253,3.788,3.788,0,0,1,1.63.8,3.108,3.108,0,0,1,.877,1.4,7.052,7.052,0,0,1,.264,2.052v5.9a4.219,4.219,0,0,1-.073.877,1.157,1.157,0,0,1-.27.562,1.018,1.018,0,0,1-.495.275,3.524,3.524,0,0,1-.8.079H285.966a5.839,5.839,0,0,1-1.63-.191,2.54,2.54,0,0,1-1.051-.562,2.073,2.073,0,0,1-.562-.978,5.508,5.508,0,0,1-.163-1.416V60.98a4.375,4.375,0,0,1,.163-1.231,2.09,2.09,0,0,1,.562-.922,2.54,2.54,0,0,1,1.051-.562,5.84,5.84,0,0,1,1.63-.191h9.027v-.422a3.035,3.035,0,0,0-.112-.9,1.248,1.248,0,0,0-.377-.613,1.686,1.686,0,0,0-.731-.343,5.334,5.334,0,0,0-1.2-.112h-9.269a.354.354,0,0,1-.4-.4V53.4a.354.354,0,0,1,.4-.4Zm1.467,9.735a.618.618,0,0,0,.495-.169.894.894,0,0,0,.146-.562V60.036h-8.116a1.343,1.343,0,0,0-.967.275,1.124,1.124,0,0,0-.275.809v.467a1.2,1.2,0,0,0,.275.877,1.372,1.372,0,0,0,.967.275Z" transform="translate(-123.737 -23.209)" fill="#2b3990"/>
      <path id="Path_876" data-name="Path 876" d="M317.188,69.131a.433.433,0,0,1,.489.489v2.13a.433.433,0,0,1-.489.489h-2.175a.438.438,0,0,1-.506-.489V69.614a.438.438,0,0,1,.506-.489Z" transform="translate(-137.726 -30.269)" fill="#2b3990"/>
      <path id="Path_877" data-name="Path 877" d="M334.155,47.049a2.732,2.732,0,0,1,1.422.343,3.564,3.564,0,0,1,1.124,1.343l7.341,13.327a.45.45,0,0,1,.056.365c-.039.1-.146.146-.32.146h-2.81a.506.506,0,0,1-.512-.292l-1.574-2.855H328.456l-1.529,2.855a.523.523,0,0,1-.506.292h-2.889c-.191,0-.3-.051-.343-.146a.477.477,0,0,1,.056-.365l7.273-13.327a3.748,3.748,0,0,1,1.09-1.343,2.248,2.248,0,0,1,1.242-.343Zm-4.3,9.8h7.627l-3.524-6.5a.281.281,0,0,0-.247-.157h-.129a.281.281,0,0,0-.247.157Z" transform="translate(-141.523 -20.603)" fill="#2b3990"/>
      <path id="Path_878" data-name="Path 878" d="M377.369,53a.354.354,0,0,1,.4.4v1.776a.354.354,0,0,1-.4.4h-10a1.383,1.383,0,0,0-.967.236.967.967,0,0,0-.264.742v.382a.922.922,0,0,0,.264.674,1.383,1.383,0,0,0,.95.253h7.481a3.747,3.747,0,0,1,2.664.776,2.928,2.928,0,0,1,.8,2.192v1.242a4.447,4.447,0,0,1-.18,1.31,2.3,2.3,0,0,1-.562.978,2.648,2.648,0,0,1-1.079.607,5.485,5.485,0,0,1-1.641.214H363.474a.354.354,0,0,1-.4-.4V63a.354.354,0,0,1,.4-.4h10.511a1.472,1.472,0,0,0,.967-.242,1.045,1.045,0,0,0,.275-.821v-.6a.865.865,0,0,0-.275-.686,1.472,1.472,0,0,0-.967-.242h-7.459a3.81,3.81,0,0,1-2.664-.764,2.962,2.962,0,0,1-.8-2.248v-.961a4.192,4.192,0,0,1,.18-1.253,2.276,2.276,0,0,1,.562-.961,2.72,2.72,0,0,1,1.079-.613A5.5,5.5,0,0,1,366.526,53Z" transform="translate(-158.989 -23.208)" fill="#2b3990"/>
      <path id="Path_879" data-name="Path 879" d="M397.118,45a.433.433,0,0,1,.489.489v2.108a.438.438,0,0,1-.489.506h-2.17a.45.45,0,0,1-.511-.506V45.486c0-.326.169-.489.511-.489Zm0,4.5a.438.438,0,0,1,.489.506V61.184a.433.433,0,0,1-.489.489h-2.17a.433.433,0,0,1-.489-.489V50a.438.438,0,0,1,.489-.506Z" transform="translate(-172.729 -19.703)" fill="#2b3990"/>
      <path id="Path_880" data-name="Path 880" d="M414.56,53a10.6,10.6,0,0,1,2.507.253,3.822,3.822,0,0,1,1.63.8,3.052,3.052,0,0,1,.871,1.4,6.845,6.845,0,0,1,.27,2.046V63.4a4.171,4.171,0,0,1-.079.877,1.153,1.153,0,0,1-.264.562,1.035,1.035,0,0,1-.5.275,3.435,3.435,0,0,1-.8.079H407.641a5.839,5.839,0,0,1-1.63-.191,2.5,2.5,0,0,1-1.051-.562,2.075,2.075,0,0,1-.562-.978,5.259,5.259,0,0,1-.169-1.416V60.98a4.177,4.177,0,0,1,.169-1.231,2.092,2.092,0,0,1,.562-.922,2.5,2.5,0,0,1,1.051-.562,5.839,5.839,0,0,1,1.63-.191h9.027v-.422a3.235,3.235,0,0,0-.112-.9,1.247,1.247,0,0,0-.377-.613,1.736,1.736,0,0,0-.731-.343,5.372,5.372,0,0,0-1.2-.112h-9.274a.354.354,0,0,1-.4-.4V53.4a.354.354,0,0,1,.4-.4Zm1.461,9.735a.63.63,0,0,0,.5-.169.894.894,0,0,0,.146-.562V60.036h-8.116a1.344,1.344,0,0,0-.967.275,1.124,1.124,0,0,0-.275.809v.467a1.2,1.2,0,0,0,.275.877,1.372,1.372,0,0,0,.967.275Z" transform="translate(-177.019 -23.209)" fill="#2b3990"/>
      <path id="Path_881" data-name="Path 881" d="M132.188,93.243v-3.03l-2.248-4.1h1.045l1.006,1.967c.275.562.483.972.708,1.473h0c.2-.467.444-.933.714-1.473l1.029-1.967h1.045l-2.366,4.1v3.035Z" transform="translate(-56.901 -37.71)" fill="#d83968"/>
      <path id="Path_882" data-name="Path 882" d="M146.854,89.513c0,2.456-1.5,3.755-3.311,3.755a3.3,3.3,0,0,1-3.2-3.614c0-2.248,1.405-3.743,3.3-3.743S146.854,87.4,146.854,89.513Zm-5.531.118c0,1.523.826,2.889,2.248,2.889s2.288-1.343,2.288-2.962c0-1.416-.742-2.9-2.248-2.9S141.324,88.068,141.324,89.631Z" transform="translate(-61.455 -37.622)" fill="#d83968"/>
      <path id="Path_883" data-name="Path 883" d="M155.455,86.11v4.221c0,1.6.708,2.248,1.686,2.248,1.057,0,1.731-.7,1.731-2.248V86.11h.933v4.159c0,2.186-1.124,3.086-2.7,3.086-1.456,0-2.557-.832-2.557-3.046v-4.2Z" transform="translate(-67.678 -37.71)" fill="#d83968"/>
      <path id="Path_884" data-name="Path 884" d="M167.16,86.149a9.057,9.057,0,0,1,1.765-.163,2.9,2.9,0,0,1,2.063.562,1.771,1.771,0,0,1,.562,1.349,1.877,1.877,0,0,1-1.343,1.821v.034a1.782,1.782,0,0,1,1.045,1.439,11.076,11.076,0,0,0,.562,1.956h-.955a9.555,9.555,0,0,1-.472-1.686c-.214-.984-.6-1.355-1.428-1.388h-.871v3.091h-.916Zm.916,3.243h.944c.984,0,1.607-.562,1.607-1.355,0-.916-.663-1.321-1.641-1.332a4,4,0,0,0-.911.084Z" transform="translate(-73.2 -37.648)" fill="#d83968"/>
      <path id="Path_885" data-name="Path 885" d="M182.2,86.152a10.606,10.606,0,0,1,1.759-.141,2.951,2.951,0,0,1,2,.562,1.922,1.922,0,0,1,.618,1.523,2.1,2.1,0,0,1-.562,1.523,2.945,2.945,0,0,1-2.175.781,3.007,3.007,0,0,1-.742-.067v2.861h-.916Zm.916,3.434a3.209,3.209,0,0,0,.759.073c1.124,0,1.787-.562,1.787-1.523s-.663-1.394-1.686-1.394a4.079,4.079,0,0,0-.871.073Z" transform="translate(-79.778 -37.662)" fill="#d83968"/>
      <path id="Path_886" data-name="Path 886" d="M196.373,89.9H193.6v2.569h3.091v.776H192.68V86.11h3.85v.776H193.6v2.248h2.777Z" transform="translate(-84.376 -37.71)" fill="#d83968"/>
      <path id="Path_887" data-name="Path 887" d="M202.4,86.158a9.094,9.094,0,0,1,1.765-.152,2.9,2.9,0,0,1,2.063.562,1.77,1.77,0,0,1,.562,1.349,1.877,1.877,0,0,1-1.343,1.821v.034a1.77,1.77,0,0,1,1.045,1.439,12.2,12.2,0,0,0,.562,1.956h-.944a9.355,9.355,0,0,1-.478-1.686c-.208-.984-.59-1.355-1.428-1.388h-.9v3.091h-.9Zm.9,3.243h.939c.984,0,1.608-.562,1.608-1.355,0-.916-.663-1.321-1.636-1.332a3.936,3.936,0,0,0-.911.084Z" transform="translate(-88.633 -37.657)" fill="#d83968"/>
      <path id="Path_888" data-name="Path 888" d="M212.581,92.03a3.288,3.288,0,0,0,1.653.467c.944,0,1.489-.5,1.489-1.22s-.382-1.045-1.343-1.416c-1.164-.41-1.883-1.012-1.883-2.018a2.044,2.044,0,0,1,2.3-1.934,3.26,3.26,0,0,1,1.579.348l-.259.748a2.844,2.844,0,0,0-1.349-.337c-.972,0-1.343.562-1.343,1.068,0,.669.433.995,1.416,1.377,1.2.467,1.816,1.045,1.816,2.091s-.809,2.063-2.49,2.063a3.637,3.637,0,0,1-1.821-.455Z" transform="translate(-92.99 -37.621)" fill="#d83968"/>
      <path id="Path_889" data-name="Path 889" d="M228.494,89.513c0,2.456-1.49,3.755-3.311,3.755a3.3,3.3,0,0,1-3.2-3.614c0-2.248,1.405-3.743,3.311-3.743S228.494,87.4,228.494,89.513Zm-5.531.118c0,1.523.826,2.889,2.276,2.889s2.276-1.343,2.276-2.962c0-1.416-.736-2.9-2.248-2.9S222.964,88.068,222.964,89.631Z" transform="translate(-97.208 -37.622)" fill="#d83968"/>
      <path id="Path_890" data-name="Path 890" d="M236.16,93.243V86.11h1.034l2.248,3.609a21.078,21.078,0,0,1,1.282,2.316h0c-.084-.95-.1-1.815-.1-2.928v-3h.866v7.133h-.922l-2.248-3.62a22.2,22.2,0,0,1-1.332-2.378h-.034c.051.9.079,1.754.079,2.94v3.058Z" transform="translate(-103.417 -37.71)" fill="#d83968"/>
      <path id="Path_891" data-name="Path 891" d="M249.72,91l-.742,2.248H248l2.423-7.133h1.124l2.428,7.133H253L252.244,91Zm2.333-.719-.68-2.052c-.157-.466-.264-.888-.371-1.3h0c-.1.427-.219.86-.36,1.293l-.7,2.063Z" transform="translate(-108.602 -37.714)" fill="#d83968"/>
      <path id="Path_892" data-name="Path 892" d="M261,86.11h.922v6.357h3.013v.776H261Z" transform="translate(-114.295 -37.71)" fill="#d83968"/>
      <path id="Path_893" data-name="Path 893" d="M274.79,86.162a8.9,8.9,0,0,1,1.686-.152,2.94,2.94,0,0,1,1.956.517,1.489,1.489,0,0,1,.59,1.259,1.686,1.686,0,0,1-1.208,1.585h0a1.849,1.849,0,0,1,1.473,1.787,1.934,1.934,0,0,1-.6,1.428,3.592,3.592,0,0,1-2.467.669,11.248,11.248,0,0,1-1.428-.084Zm.922,2.917h.832c.978,0,1.546-.512,1.546-1.2,0-.837-.635-1.163-1.568-1.163a4.211,4.211,0,0,0-.809.062Zm0,3.412a4.616,4.616,0,0,0,.77.045c.955,0,1.827-.348,1.827-1.388s-.832-1.371-1.838-1.371h-.759Z" transform="translate(-120.335 -37.661)" fill="#d83968"/>
      <path id="Path_894" data-name="Path 894" d="M289.123,89.9h-2.771v2.569h3.086v.776H285.43V86.11h3.85v.776h-2.928v2.248h2.771Z" transform="translate(-124.994 -37.71)" fill="#d83968"/>
      <path id="Path_895" data-name="Path 895" d="M295.9,91l-.736,2.248h-.956l2.428-7.133h1.124l2.434,7.133h-.984L298.448,91Zm2.338-.719-.7-2.052c-.157-.466-.264-.888-.371-1.3h0c-.1.427-.219.86-.354,1.293l-.7,2.063Z" transform="translate(-128.839 -37.714)" fill="#d83968"/>
      <path id="Path_896" data-name="Path 896" d="M307.561,86.11v4.221c0,1.6.708,2.248,1.686,2.248,1.057,0,1.731-.7,1.731-2.248V86.11h.927v4.159c0,2.186-1.124,3.086-2.7,3.086-1.456,0-2.557-.832-2.557-3.046v-4.2Z" transform="translate(-134.287 -37.71)" fill="#d83968"/>
      <path id="Path_897" data-name="Path 897" d="M319.99,86.9h-2.17V86.11H323.1V86.9h-2.181v6.346h-.927Z" transform="translate(-139.178 -37.71)" fill="#d83968"/>
      <path id="Path_898" data-name="Path 898" d="M330.678,93.243v-3.03l-2.248-4.1h1.051l1.006,1.967c.27.562.483.972.708,1.473h0c.2-.467.444-.933.719-1.473l1.029-1.967h1.045l-2.389,4.1v3.035Z" transform="translate(-143.825 -37.71)" fill="#d83968"/>
      <path id="Path_899" data-name="Path 899" d="M344.66,86.9h-2.17V86.11h5.278V86.9h-2.181v6.346h-.933Z" transform="translate(-149.982 -37.71)" fill="#d83968"/>
      <path id="Path_900" data-name="Path 900" d="M354.682,86.11v2.985h3.446V86.11h.933v7.133h-.933V89.87h-3.446v3.372h-.922V86.11Z" transform="translate(-154.918 -37.71)" fill="#d83968"/>
      <path id="Path_901" data-name="Path 901" d="M370.183,89.9h-2.771v2.569H370.5v.776H366.49V86.11h3.85v.776h-2.928v2.248h2.771Z" transform="translate(-160.492 -37.71)" fill="#d83968"/>
      <path id="Path_902" data-name="Path 902" d="M376.22,86.158a9,9,0,0,1,1.765-.152,2.9,2.9,0,0,1,2.063.562,1.765,1.765,0,0,1,.562,1.349,1.866,1.866,0,0,1-1.343,1.821v.034a1.765,1.765,0,0,1,1.051,1.439,11.083,11.083,0,0,0,.562,1.956h-.956a9.548,9.548,0,0,1-.472-1.686c-.214-.984-.6-1.355-1.428-1.388h-.865v3.091h-.922Zm.922,3.243h.939c.984,0,1.607-.562,1.607-1.355,0-.916-.669-1.321-1.641-1.332a3.9,3.9,0,0,0-.9.084Z" transform="translate(-164.753 -37.657)" fill="#d83968"/>
      <path id="Path_903" data-name="Path 903" d="M387.682,91l-.742,2.248h-.95l2.422-7.133h1.124l2.434,7.133h-1.029L390.183,91Zm2.338-.719-.7-2.052c-.157-.466-.264-.888-.365-1.3h0c-.107.427-.225.86-.36,1.293l-.7,2.063Z" transform="translate(-169.032 -37.714)" fill="#d83968"/>
      <path id="Path_904" data-name="Path 904" d="M398.858,86.143a10.678,10.678,0,0,1,1.754-.152,2.934,2.934,0,0,1,2,.562,1.923,1.923,0,0,1,.624,1.5,2.119,2.119,0,0,1-.562,1.523,2.968,2.968,0,0,1-2.181.781,2.934,2.934,0,0,1-.736-.067v2.9h-.922Zm.922,3.434a3.149,3.149,0,0,0,.759.073c1.124,0,1.787-.562,1.787-1.523s-.669-1.394-1.686-1.394a4.019,4.019,0,0,0-.866.073Z" transform="translate(-174.655 -37.653)" fill="#d83968"/>
      <path id="Path_905" data-name="Path 905" d="M410.286,86.11v7.133h-.916V86.11Z" transform="translate(-179.271 -37.71)" fill="#d83968"/>
      <path id="Path_906" data-name="Path 906" d="M413.911,92.03a3.288,3.288,0,0,0,1.652.467c.939,0,1.49-.5,1.49-1.22s-.382-1.045-1.343-1.416c-1.163-.41-1.883-1.012-1.883-2.018a2.046,2.046,0,0,1,2.31-1.934,3.255,3.255,0,0,1,1.574.348l-.253.748a2.911,2.911,0,0,0-1.355-.337c-.972,0-1.343.562-1.343,1.068,0,.669.433.995,1.416,1.377,1.2.467,1.816,1.045,1.816,2.091s-.809,2.063-2.5,2.063a3.63,3.63,0,0,1-1.815-.455Z" transform="translate(-181.158 -37.621)" fill="#d83968"/>
      <path id="Path_907" data-name="Path 907" d="M424.78,86.9h-2.17V86.11h5.278V86.9h-2.175v6.346h-.933Z" transform="translate(-185.069 -37.71)" fill="#d83968"/>
    </g>
  </g>
</svg>
