<svg xmlns="http://www.w3.org/2000/svg" width="22.961" height="28.381" viewBox="0 0 22.961 28.381">
  <g id="place" transform="translate(-45.886)">
    <g id="Group_1587" data-name="Group 1587" transform="translate(45.886)">
      <g id="Group_1586" data-name="Group 1586" transform="translate(0)">
        <path id="Path_863" data-name="Path 863" d="M69.787,4.935a11.459,11.459,0,0,0-18.841,0,11.461,11.461,0,0,0-1.334,10.559,9.026,9.026,0,0,0,1.664,2.746l8.336,9.791a.992.992,0,0,0,1.511,0l8.333-9.788A9.035,9.035,0,0,0,71.119,15.5,11.463,11.463,0,0,0,69.787,4.935Zm-.527,9.871a7.079,7.079,0,0,1-1.309,2.144l0,.005-7.58,8.9-7.585-8.909a7.083,7.083,0,0,1-1.311-2.15,9.48,9.48,0,0,1,1.108-8.736,9.474,9.474,0,0,1,15.575,0A9.482,9.482,0,0,1,69.261,14.805Z" transform="translate(-48.886)" fill="#2b3990"/>
      </g>
    </g>
    <g id="Group_1589" data-name="Group 1589" transform="translate(52.144 5.888)">
      <g id="Group_1588" data-name="Group 1588" transform="translate(0)">
        <path id="Path_864" data-name="Path 864" d="M161.311,106.219a5.557,5.557,0,1,0,5.557,5.557A5.563,5.563,0,0,0,161.311,106.219Zm0,9.13a3.572,3.572,0,1,1,3.572-3.572A3.577,3.577,0,0,1,161.311,115.349Z" transform="translate(-155.754 -106.219)" fill="#2b3990"/>
      </g>
    </g>
  </g>
</svg>
