<svg xmlns="http://www.w3.org/2000/svg" width="18.161" height="16.388" viewBox="0 0 18.161 16.388">
  <g id="calendar_3_" data-name="calendar (3)" transform="translate(0 -25)">
    <path id="Path_1092" data-name="Path 1092" d="M18.161,30.108V28.015a1.6,1.6,0,0,0-1.6-1.6h-.213V28.37a.532.532,0,0,1-1.064,0V25.532a.532.532,0,1,0-1.064,0v.887H10.677V28.37a.532.532,0,0,1-1.064,0V25.532a.532.532,0,1,0-1.064,0v.887H5V28.37a.532.532,0,0,1-1.064,0V25.532a.532.532,0,1,0-1.064,0v.887H1.6a1.6,1.6,0,0,0-1.6,1.6v2.093Z" fill="#979797"/>
    <path id="Path_1093" data-name="Path 1093" d="M0,199v8.619a1.6,1.6,0,0,0,1.6,1.6H16.565a1.6,1.6,0,0,0,1.6-1.6V199Zm5.108,7.378H3.973a.532.532,0,0,1,0-1.064H5.108a.532.532,0,0,1,0,1.064Zm0-2.27H3.973a.532.532,0,0,1,0-1.064H5.108a.532.532,0,0,1,0,1.064Zm0-2.27H3.973a.532.532,0,0,1,0-1.064H5.108a.532.532,0,0,1,0,1.064Zm4.54,4.54H8.513a.532.532,0,0,1,0-1.064H9.648a.532.532,0,0,1,0,1.064Zm0-2.27H8.513a.532.532,0,0,1,0-1.064H9.648a.532.532,0,0,1,0,1.064Zm0-2.27H8.513a.532.532,0,0,1,0-1.064H9.648a.532.532,0,0,1,0,1.064Zm4.54,4.54H13.053a.532.532,0,0,1,0-1.064h1.135a.532.532,0,0,1,0,1.064Zm0-2.27H13.053a.532.532,0,0,1,0-1.064h1.135a.532.532,0,0,1,0,1.064Zm0-2.27H13.053a.532.532,0,0,1,0-1.064h1.135a.532.532,0,0,1,0,1.064Z" transform="translate(0 -167.828)" fill="#979797"/>
  </g>
</svg>
