<svg xmlns="http://www.w3.org/2000/svg" xmlns:xlink="http://www.w3.org/1999/xlink" width="26.375" height="27.311" viewBox="0 0 26.375 27.311">
  <defs>
    <clipPath id="clip-path">
      <rect width="26.375" height="27.311" fill="none"/>
    </clipPath>
  </defs>
  <g id="calendar_4_" data-name="calendar (4)" clip-path="url(#clip-path)">
    <g id="calendar_4_2" data-name="calendar (4)">
      <g id="Group_1953" data-name="Group 1953" transform="translate(5.652)">
        <g id="Group_1952" data-name="Group 1952">
          <path id="Path_1097" data-name="Path 1097" d="M103.342,0a.942.942,0,0,0-.942.942V2.826h1.884V.942A.942.942,0,0,0,103.342,0Z" transform="translate(-102.4)" fill="#9c9c9c"/>
        </g>
      </g>
      <g id="Group_1955" data-name="Group 1955" transform="translate(18.839)">
        <g id="Group_1954" data-name="Group 1954">
          <path id="Path_1098" data-name="Path 1098" d="M342.275,0a.942.942,0,0,0-.942.942V2.826h1.884V.942A.942.942,0,0,0,342.275,0Z" transform="translate(-341.333)" fill="#9c9c9c"/>
        </g>
      </g>
      <g id="Group_1957" data-name="Group 1957" transform="translate(0 2.826)">
        <g id="Group_1956" data-name="Group 1956">
          <path id="Path_1099" data-name="Path 1099" d="M23.549,51.2H20.723v3.918a.943.943,0,1,1-1.884,0V51.2H7.536v3.918a.943.943,0,1,1-1.884,0V51.2H2.826A2.884,2.884,0,0,0,0,54.138V72.747a2.884,2.884,0,0,0,2.826,2.938H23.549a2.884,2.884,0,0,0,2.826-2.938V54.138A2.884,2.884,0,0,0,23.549,51.2Zm.942,21.547a.961.961,0,0,1-.942.979H2.826a.961.961,0,0,1-.942-.979V60.015H24.491Z" transform="translate(0 -51.2)" fill="#9c9c9c"/>
        </g>
      </g>
      <g id="Group_1959" data-name="Group 1959" transform="translate(4.71 13.692)">
        <g id="Group_1958" data-name="Group 1958">
          <path id="Path_1100" data-name="Path 1100" d="M88.159,238.933H86.275a.942.942,0,0,0,0,1.884h1.884a.942.942,0,1,0,0-1.884Z" transform="translate(-85.333 -238.933)" fill="#9c9c9c"/>
        </g>
      </g>
      <g id="Group_1961" data-name="Group 1961" transform="translate(11.303 13.692)">
        <g id="Group_1960" data-name="Group 1960">
          <path id="Path_1101" data-name="Path 1101" d="M207.626,238.933h-1.884a.942.942,0,1,0,0,1.884h1.884a.942.942,0,0,0,0-1.884Z" transform="translate(-204.8 -238.933)" fill="#9c9c9c"/>
        </g>
      </g>
      <g id="Group_1963" data-name="Group 1963" transform="translate(17.897 13.692)">
        <g id="Group_1962" data-name="Group 1962">
          <path id="Path_1102" data-name="Path 1102" d="M327.093,238.933h-1.884a.942.942,0,1,0,0,1.884h1.884a.942.942,0,0,0,0-1.884Z" transform="translate(-324.267 -238.933)" fill="#9c9c9c"/>
        </g>
      </g>
      <g id="Group_1965" data-name="Group 1965" transform="translate(4.71 17.603)">
        <g id="Group_1964" data-name="Group 1964">
          <path id="Path_1103" data-name="Path 1103" d="M88.159,307.2H86.275a.942.942,0,0,0,0,1.884h1.884a.942.942,0,1,0,0-1.884Z" transform="translate(-85.333 -307.2)" fill="#9c9c9c"/>
        </g>
      </g>
      <g id="Group_1967" data-name="Group 1967" transform="translate(11.303 17.603)">
        <g id="Group_1966" data-name="Group 1966">
          <path id="Path_1104" data-name="Path 1104" d="M207.626,307.2h-1.884a.942.942,0,1,0,0,1.884h1.884a.942.942,0,0,0,0-1.884Z" transform="translate(-204.8 -307.2)" fill="#9c9c9c"/>
        </g>
      </g>
      <g id="Group_1969" data-name="Group 1969" transform="translate(17.897 17.603)">
        <g id="Group_1968" data-name="Group 1968">
          <path id="Path_1105" data-name="Path 1105" d="M327.093,307.2h-1.884a.942.942,0,1,0,0,1.884h1.884a.942.942,0,0,0,0-1.884Z" transform="translate(-324.267 -307.2)" fill="#9c9c9c"/>
        </g>
      </g>
      <g id="Group_1971" data-name="Group 1971" transform="translate(4.71 21.659)">
        <g id="Group_1970" data-name="Group 1970">
          <path id="Path_1106" data-name="Path 1106" d="M88.159,375.467H86.275a.942.942,0,1,0,0,1.884h1.884a.942.942,0,1,0,0-1.884Z" transform="translate(-85.333 -375.467)" fill="#9c9c9c"/>
        </g>
      </g>
      <g id="Group_1973" data-name="Group 1973" transform="translate(11.303 21.659)">
        <g id="Group_1972" data-name="Group 1972">
          <path id="Path_1107" data-name="Path 1107" d="M207.626,375.467h-1.884a.942.942,0,1,0,0,1.884h1.884a.942.942,0,0,0,0-1.884Z" transform="translate(-204.8 -375.467)" fill="#9c9c9c"/>
        </g>
      </g>
      <g id="Group_1975" data-name="Group 1975" transform="translate(17.897 21.659)">
        <g id="Group_1974" data-name="Group 1974">
          <path id="Path_1108" data-name="Path 1108" d="M327.093,375.467h-1.884a.942.942,0,1,0,0,1.884h1.884a.942.942,0,1,0,0-1.884Z" transform="translate(-324.267 -375.467)" fill="#9c9c9c"/>
        </g>
      </g>
    </g>
  </g>
</svg>
