<svg xmlns="http://www.w3.org/2000/svg" width="20.274" height="20.228" viewBox="0 0 20.274 20.228">
  <path id="Path_954" data-name="Path 954" d="M19.25,7.8A9.714,9.714,0,0,0,8.115.135L8.067.143a9.717,9.717,0,0,0-7.6,12.481C1,14.362.021,17.429-.753,19.074a.808.808,0,0,0,.113.865.81.81,0,0,0,.833.26L4.665,18a9.628,9.628,0,0,0,5.042,1.427,9.792,9.792,0,0,0,1.938-.194A9.713,9.713,0,0,0,19.25,7.8Zm-2.782,6.4A8.092,8.092,0,0,1,5.246,16.455a.812.812,0,0,0-.448-.135.826.826,0,0,0-.213.028l-2.471.674a8.9,8.9,0,0,0-.105-4.88A8,8,0,0,1,1.754,11.1,8.1,8.1,0,0,1,8.306,1.745l.044-.006A8.093,8.093,0,0,1,16.468,14.2Z" transform="translate(0.831)" fill="#fff"/>
</svg>
