<svg xmlns="http://www.w3.org/2000/svg" width="19.044" height="13.093" viewBox="0 0 19.044 13.093">
  <g id="credit-card_1_" data-name="credit-card (1)" transform="translate(0 -80)">
    <path id="Path_1090" data-name="Path 1090" d="M19.044,83.087v-1A2.083,2.083,0,0,0,16.961,80H2.083A2.083,2.083,0,0,0,0,82.083v1a.186.186,0,0,0,.186.186H18.858A.186.186,0,0,0,19.044,83.087Z" fill="#979797"/>
    <path id="Path_1091" data-name="Path 1091" d="M0,200.186v6.36a2.083,2.083,0,0,0,2.083,2.083H16.961a2.083,2.083,0,0,0,2.083-2.083v-6.36a.186.186,0,0,0-.186-.186H.186A.186.186,0,0,0,0,200.186Zm4.761,4.873a.6.6,0,0,1-.6.6h-.6a.6.6,0,0,1-.6-.6v-.6a.6.6,0,0,1,.6-.6h.6a.6.6,0,0,1,.6.6Z" transform="translate(0 -115.537)" fill="#979797"/>
  </g>
</svg>
