<svg xmlns="http://www.w3.org/2000/svg" width="22" height="22" viewBox="0 0 22 22">
  <g id="Support-Call_Center-Information-Help-Customer_Service" data-name="Support-Call Center-Information-Help-Customer Service" transform="translate(-2 -2)">
    <path id="Path_4" data-name="Path 4" d="M14.809,25.746a1.1,1.1,0,0,0-1.526,0l-1.9,1.9A1.791,1.791,0,0,1,9.328,28,5.425,5.425,0,0,1,6.87,25.537a1.792,1.792,0,0,1,.349-2.056l1.9-1.9a1.079,1.079,0,0,0,0-1.525L5.886,16.822a1.079,1.079,0,0,0-1.584.059A9.751,9.751,0,0,0,2,23.155a9.6,9.6,0,0,0,.859,4,9.707,9.707,0,0,0,15.124,3.412,1.07,1.07,0,0,0,.375-.771,1.088,1.088,0,0,0-.317-.813Zm-9.959-8.4a.347.347,0,0,1,.252-.122h.015a.367.367,0,0,1,.259.108l3.232,3.233a.36.36,0,0,1,0,.508l-.854.854-3.61-3.61a8.9,8.9,0,0,1,.706-.971Zm3.16,14A8.981,8.981,0,0,1,3.766,18.957l3.479,3.479-.534.536a2.51,2.51,0,0,0-.486,2.882,6.149,6.149,0,0,0,2.786,2.787,2.51,2.51,0,0,0,2.882-.486l.534-.536,3.479,3.48a8.975,8.975,0,0,1-7.9.252Zm9.508-1.335a8.852,8.852,0,0,1-.971.707l-3.61-3.61.855-.855a.367.367,0,0,1,.508,0l3.233,3.233a.37.37,0,0,1,.108.274A.346.346,0,0,1,17.517,30.014Z" transform="translate(0 -8.86)" fill="#fff"/>
    <path id="Path_5" data-name="Path 5" d="M31.475,2a6.472,6.472,0,0,0-5.109,10.444L25.744,14.1a.36.36,0,0,0,.463.463l1.753-.658A6.472,6.472,0,1,0,31.475,2Zm0,12.225a5.719,5.719,0,0,1-3.264-1.018.362.362,0,0,0-.2-.064.358.358,0,0,0-.126.023l-1.185.444.415-1.106a.36.36,0,0,0-.06-.356,5.753,5.753,0,1,1,4.425,2.077Z" transform="translate(-13.953 0)" fill="#fff"/>
    <path id="Path_6" data-name="Path 6" d="M40.394,13.8H38.955V12.36A.36.36,0,0,0,38.6,12H37.157a.36.36,0,0,0-.36.36V13.8H35.36a.36.36,0,0,0-.36.36V15.6a.36.36,0,0,0,.36.36H36.8v1.438a.36.36,0,0,0,.36.36H38.6a.36.36,0,0,0,.36-.36V15.955h1.438a.36.36,0,0,0,.36-.36V14.157A.36.36,0,0,0,40.394,13.8Zm-.36,1.438H38.6a.36.36,0,0,0-.36.36v1.438h-.719V15.6a.36.36,0,0,0-.36-.36H35.719v-.719h1.438a.36.36,0,0,0,.36-.36V12.719h.719v1.438a.36.36,0,0,0,.36.36h1.438Z" transform="translate(-20.536 -6.307)" fill="#fff"/>
  </g>
</svg>
