<svg xmlns="http://www.w3.org/2000/svg" width="26.782" height="19.711" viewBox="0 0 26.782 19.711">
  <path id="envelope_3_" data-name="envelope (3)" d="M24.271,59.882H2.511A2.49,2.49,0,0,0,0,62.346V77.13a2.49,2.49,0,0,0,2.511,2.464h21.76a2.49,2.49,0,0,0,2.511-2.464V62.346A2.49,2.49,0,0,0,24.271,59.882Zm0,1.643a.846.846,0,0,1,.321.064l-11.2,9.527L2.19,61.588a.847.847,0,0,1,.321-.064Zm0,16.426H2.511a.83.83,0,0,1-.837-.821V63.324l11.169,9.5a.85.85,0,0,0,1.1,0l11.169-9.5V77.13A.83.83,0,0,1,24.271,77.951Z" transform="translate(0 -59.882)" fill="#2b3990"/>
</svg>
