<svg xmlns="http://www.w3.org/2000/svg" width="92.017" height="138.054" viewBox="0 0 92.017 138.054">
  <g id="Layer_2" data-name="Layer 2" transform="translate(0.004 0)">
    <g id="Layer_1" data-name="Layer 1" transform="translate(-0.004 0)">
      <path id="Path_909" data-name="Path 909" d="M46.006,0A46,46,0,0,0,10.743,75.541l27.6,39.7a8.549,8.549,0,0,0,15.366,0l27.576-39.7A46,46,0,0,0,46.006,0Z" transform="translate(0 0)" fill="#2b3990"/>
      <path id="Path_910" data-name="Path 910" d="M35.453,43.56s-.767,7.948-9.156,18.229c-3.195,3.91-6.664,7.731-9.507,11.7a35.563,35.563,0,0,0,1.827,4.473C25.4,65.22,37.038,53.221,35.453,43.56Z" transform="translate(-6.06 -15.728)" fill="#d83968"/>
      <path id="Path_911" data-name="Path 911" d="M33.395,22.49A35.991,35.991,0,0,0,14.866,62.647C23.044,51.619,33.931,38,33.395,22.49Z" transform="translate(-5.023 -8.12)" fill="#d83968"/>
      <path id="Path_912" data-name="Path 912" d="M39.3,68.547c9.514-14.312,19.315-33.186,2.255-49.057l-.562.2c2.287,3.316,9.955,16.855-2.569,33.57C32.951,60.586,27.648,67.538,24.3,74.247A36.164,36.164,0,0,0,35.609,84.578C34.478,80.9,34.625,75.576,39.3,68.547Z" transform="translate(-8.771 -7.037)" fill="#d83968"/>
      <path id="Path_913" data-name="Path 913" d="M59.162,73.9c4.939-14.7,17.756-41.467-6.907-55.645h0A28.494,28.494,0,0,1,63.507,43.134c-1.093,14.21-17.385,29.046-16.4,42.687A35.78,35.78,0,0,0,60.44,88.939C58.23,86.37,56.5,81.783,59.162,73.9Z" transform="translate(-16.99 -6.593)" fill="#d83968"/>
      <path id="Path_914" data-name="Path 914" d="M73.73,88.1C76.612,71.42,93.371,72.085,96.853,70.475c3.674-1.693,1.278-5.111,0-7.354s1.278-2.556.7-4.389-2.684-.99-2.684-.99,2.684-2.121,2.684-3.533S96,52.367,94.3,51.894s-4.594-3.527-.99-5.329c4.53-2.262,5.3-4.473,2.62-5.872C93.64,39.486,89.768,39.218,82.8,30.8a8.1,8.1,0,0,0,1.527-8.868s.754,4.881-3.022,7c-.773-1-1.578-2.1-2.422-3.31A27.966,27.966,0,0,0,68.44,16.287c.748-.045,1.508-.077,2.275-.077A36.01,36.01,0,0,1,73.73,88.1Z" transform="translate(-24.709 -5.853)" fill="#e6e7e8"/>
      <path id="Path_915" data-name="Path 915" d="M1.57,191.229a.236.236,0,0,1,.268.268v4.792a3.482,3.482,0,0,0,.077.8,1.112,1.112,0,0,0,.256.5,1,1,0,0,0,.492.268,3.247,3.247,0,0,0,.773.077H8.3a.236.236,0,0,1,.262.262v1.188a.236.236,0,0,1-.262.262H3.366a6.307,6.307,0,0,1-1.553-.166,2.358,2.358,0,0,1-1.041-.549,2.23,2.23,0,0,1-.588-.984A5.144,5.144,0,0,1,0,196.481V191.5a.236.236,0,0,1,.275-.268Z" transform="translate(0.004 -69.045)" fill="#2b3990"/>
      <path id="Path_916" data-name="Path 916" d="M20.233,194.066a5.751,5.751,0,0,1,1.355.141,2.1,2.1,0,0,1,.888.434,1.674,1.674,0,0,1,.473.754,3.834,3.834,0,0,1,.141,1.112V199.7a2.428,2.428,0,0,1-.038.473.639.639,0,0,1-.147.294.524.524,0,0,1-.268.147,1.648,1.648,0,0,1-.434.045H16.483a3.149,3.149,0,0,1-.882-.1,1.278,1.278,0,0,1-.575-.307,1.176,1.176,0,0,1-.307-.53,2.971,2.971,0,0,1-.089-.767v-.575a2.4,2.4,0,0,1,.089-.671,1.278,1.278,0,0,1,.307-.5,1.45,1.45,0,0,1,.575-.307,3.412,3.412,0,0,1,.882-.1h4.888v-.224a1.917,1.917,0,0,0-.058-.5.639.639,0,0,0-.2-.326.914.914,0,0,0-.4-.185,2.6,2.6,0,0,0-.639-.064H15.039a.192.192,0,0,1-.217-.217v-1.01a.2.2,0,0,1,.217-.217Zm.792,5.278a.326.326,0,0,0,.268-.089.5.5,0,0,0,.077-.319v-1.08h-4.4a.754.754,0,0,0-.524.147.639.639,0,0,0-.147.441v.249a.684.684,0,0,0,.147.479.754.754,0,0,0,.524.147Z" transform="translate(-5.28 -70.068)" fill="#2b3990"/>
      <path id="Path_917" data-name="Path 917" d="M30.252,194.069a.256.256,0,0,1,.275.2l1.559,4.939a.128.128,0,0,0,.121.083h.045c.07,0,.115-.032.121-.083L34,194.663a.971.971,0,0,1,.281-.454.786.786,0,0,1,.486-.128H36.2a.786.786,0,0,1,.486.128.971.971,0,0,1,.281.454l1.61,4.556a.109.109,0,0,0,.121.083h.051a.115.115,0,0,0,.115-.083l1.527-4.952c0-.134.115-.2.275-.2h1.386a.211.211,0,0,1,.2.083.288.288,0,0,1,0,.211l-1.827,5.559a1.15,1.15,0,0,1-.345.6.971.971,0,0,1-.581.147H37.99a.639.639,0,0,1-.479-.16,1.565,1.565,0,0,1-.326-.588L35.6,195.538a.1.1,0,0,0-.109-.07h-.07c-.064,0-.1,0-.109.07l-1.578,4.383a1.668,1.668,0,0,1-.319.588.677.677,0,0,1-.486.16H31.447a.99.99,0,0,1-.581-.147,1.2,1.2,0,0,1-.345-.6l-1.8-5.559a.294.294,0,0,1,0-.211c0-.051.1-.083.2-.083Z" transform="translate(-10.36 -70.071)" fill="#2b3990"/>
      <path id="Path_918" data-name="Path 918" d="M52.122,194.069a.256.256,0,0,1,.275.2l1.553,4.939a.134.134,0,0,0,.121.083h.045c.077,0,.115-.032.121-.083l1.648-4.543a.971.971,0,0,1,.281-.454.786.786,0,0,1,.486-.128h1.431a.786.786,0,0,1,.486.128,1.029,1.029,0,0,1,.288.454l1.61,4.556c0,.051.045.083.115.083h.051a.134.134,0,0,0,.121-.083l1.591-4.952c0-.134.115-.2.275-.2h1.361a.211.211,0,0,1,.2.083.262.262,0,0,1,0,.211l-1.834,5.559a1.15,1.15,0,0,1-.345.6.971.971,0,0,1-.581.147H59.885a.639.639,0,0,1-.479-.16,1.661,1.661,0,0,1-.326-.588L57.5,195.538a.1.1,0,0,0-.109-.07h-.07c-.064,0-.1,0-.109.07l-1.572,4.383a1.763,1.763,0,0,1-.326.588.677.677,0,0,1-.486.16H53.317a1,1,0,0,1-.588-.147,1.2,1.2,0,0,1-.339-.6l-1.8-5.559a.294.294,0,0,1,0-.211c0-.051.089-.083.2-.083Z" transform="translate(-18.256 -70.071)" fill="#2b3990"/>
      <path id="Path_919" data-name="Path 919" d="M78.353,194.066a5.751,5.751,0,0,1,1.355.141,2.038,2.038,0,0,1,.869.454,1.629,1.629,0,0,1,.479.754,3.833,3.833,0,0,1,.141,1.112v3.195a2.428,2.428,0,0,1-.038.473.639.639,0,0,1-.147.294.549.549,0,0,1-.268.147,1.648,1.648,0,0,1-.434.045H74.6a3.149,3.149,0,0,1-.882-.1,1.278,1.278,0,0,1-.575-.307,1.176,1.176,0,0,1-.307-.53,2.971,2.971,0,0,1-.089-.767V198.4a2.4,2.4,0,0,1,.089-.671,1.278,1.278,0,0,1,.307-.5,1.45,1.45,0,0,1,.575-.307,3.412,3.412,0,0,1,.882-.1h4.888v-.243a1.917,1.917,0,0,0-.057-.5.639.639,0,0,0-.2-.326.914.914,0,0,0-.4-.185,2.6,2.6,0,0,0-.639-.064H73.159a.192.192,0,0,1-.217-.217v-1.01a.2.2,0,0,1,.217-.217Zm.792,5.278a.326.326,0,0,0,.268-.089.5.5,0,0,0,.077-.319v-1.08h-4.4a.754.754,0,0,0-.524.147.594.594,0,0,0-.147.441v.249a.639.639,0,0,0,.147.479.754.754,0,0,0,.524.147Z" transform="translate(-26.265 -70.068)" fill="#2b3990"/>
      <path id="Path_920" data-name="Path 920" d="M89.44,201.77c.179,0,.268.083.268.262v1.163a.236.236,0,0,1-.268.262H88.265c-.185,0-.275-.089-.275-.262v-1.156c0-.179.089-.262.275-.262Z" transform="translate(-31.768 -72.853)" fill="#2b3990"/>
      <path id="Path_921" data-name="Path 921" d="M98.074,191.23a1.45,1.45,0,0,1,.767.192,1.917,1.917,0,0,1,.639.722l3.949,7.246a.236.236,0,0,1,.032.2q0,.077-.173.077h-1.527a.268.268,0,0,1-.275-.16l-.856-1.546H94.982l-.831,1.546a.288.288,0,0,1-.275.16H92.311c-.1,0-.166,0-.185-.077a.262.262,0,0,1,.032-.2l3.942-7.226a1.987,1.987,0,0,1,.588-.722,1.188,1.188,0,0,1,.677-.192Zm-2.332,5.316h4.134l-1.917-3.521a.153.153,0,0,0-.134-.089h-.032a.153.153,0,0,0-.134.089Z" transform="translate(-33.258 -69.047)" fill="#2b3990"/>
      <path id="Path_922" data-name="Path 922" d="M118.888,194.069a.192.192,0,0,1,.217.217v.965a.192.192,0,0,1-.217.217H113.47a.76.76,0,0,0-.518.134.543.543,0,0,0-.147.4v.185a.5.5,0,0,0,.147.377.76.76,0,0,0,.518.134h4.051a2.044,2.044,0,0,1,1.444.422,1.585,1.585,0,0,1,.428,1.188v.677a2.441,2.441,0,0,1-.1.709,1.163,1.163,0,0,1-.319.524,1.392,1.392,0,0,1-.581.332,2.971,2.971,0,0,1-.888.115h-6.153a.192.192,0,0,1-.217-.217v-.958a.192.192,0,0,1,.217-.217h5.693a.786.786,0,0,0,.524-.134.556.556,0,0,0,.153-.441v-.326a.454.454,0,0,0-.153-.371.786.786,0,0,0-.524-.134H113.01a2.045,2.045,0,0,1-1.438-.415,1.6,1.6,0,0,1-.434-1.208v-.53a2.255,2.255,0,0,1,.1-.677,1.278,1.278,0,0,1,.319-.524,1.514,1.514,0,0,1,.581-.332,3.2,3.2,0,0,1,.888-.115Z" transform="translate(-40.124 -70.071)" fill="#2b3990"/>
      <path id="Path_923" data-name="Path 923" d="M127.545,190.259a.23.23,0,0,1,.262.262v1.144c0,.185-.083.275-.262.275H126.37a.243.243,0,0,1-.281-.275V190.52c0-.173.1-.262.281-.262Zm0,2.434c.179,0,.262.1.262.281v6.063a.23.23,0,0,1-.262.262H126.37a.236.236,0,0,1-.268-.262V192.98c0-.185.089-.281.268-.281Z" transform="translate(-45.523 -68.695)" fill="#2b3990"/>
      <path id="Path_924" data-name="Path 924" d="M136.328,194.065a5.858,5.858,0,0,1,1.361.141,2.076,2.076,0,0,1,.863.454,1.674,1.674,0,0,1,.473.754,3.834,3.834,0,0,1,.147,1.112v3.195a1.974,1.974,0,0,1-.045.473.639.639,0,0,1-.141.294.549.549,0,0,1-.268.147,1.679,1.679,0,0,1-.434.045h-5.75a3.2,3.2,0,0,1-.888-.1,1.278,1.278,0,0,1-.569-.307,1.073,1.073,0,0,1-.307-.53,2.97,2.97,0,0,1-.089-.767V198.4a2.4,2.4,0,0,1,.089-.671,1.131,1.131,0,0,1,.307-.5,1.38,1.38,0,0,1,.569-.307,3.424,3.424,0,0,1,.888-.1h4.888v-.243a1.917,1.917,0,0,0-.057-.5.716.716,0,0,0-.2-.326.913.913,0,0,0-.4-.185,2.671,2.671,0,0,0-.639-.064H131.14a.192.192,0,0,1-.217-.217v-1.01a.192.192,0,0,1,.217-.217Zm.792,5.278a.339.339,0,0,0,.275-.089.5.5,0,0,0,.077-.319v-1.08h-4.4a.741.741,0,0,0-.524.147.594.594,0,0,0-.153.441v.249a.639.639,0,0,0,.153.479.741.741,0,0,0,.524.147Z" transform="translate(-47.181 -70.068)" fill="#2b3990"/>
      <path id="Path_925" data-name="Path 925" d="M1.22,213.719v-1.636L0,209.86H.569l.543,1.067c.147.288.262.524.383.792h0c.109-.249.243-.5.39-.792l.556-1.067h.569l-1.278,2.217v1.642Z" transform="translate(0.003 -75.774)" fill="#d83968"/>
      <path id="Path_926" data-name="Path 926" d="M8.5,211.715a1.806,1.806,0,0,1-1.8,2.032,1.77,1.77,0,0,1-1.706-1.962,1.827,1.827,0,0,1,1.789-2.025A1.757,1.757,0,0,1,8.5,211.715Zm-3,.064c0,.824.447,1.559,1.233,1.559s1.24-.722,1.24-1.6c0-.767-.4-1.565-1.233-1.565S5.5,210.929,5.5,211.779Z" transform="translate(-1.797 -75.737)" fill="#d83968"/>
      <path id="Path_927" data-name="Path 927" d="M12.215,209.86v2.287c0,.863.383,1.227.9,1.227s.939-.377.939-1.227V209.86h.5v2.249c0,1.188-.639,1.674-1.463,1.674s-1.386-.454-1.386-1.648V209.86Z" transform="translate(-4.225 -75.774)" fill="#d83968"/>
      <path id="Path_928" data-name="Path 928" d="M17.74,209.889a5.245,5.245,0,0,1,.958-.083,1.591,1.591,0,0,1,1.118.319.958.958,0,0,1,.307.728,1.029,1.029,0,0,1-.728.99h0a.978.978,0,0,1,.562.78,5.808,5.808,0,0,0,.3,1.061H19.74a4.978,4.978,0,0,1-.256-.92c-.115-.537-.319-.735-.773-.754h-.473v1.674h-.5Zm.5,1.757h.511c.537,0,.869-.294.869-.735s-.358-.716-.888-.722a2.345,2.345,0,0,0-.492.045Z" transform="translate(-6.403 -75.751)" fill="#d83968"/>
      <path id="Path_929" data-name="Path 929" d="M24.92,209.884a5.876,5.876,0,0,1,.952-.077,1.565,1.565,0,0,1,1.086.326,1.029,1.029,0,0,1,.339.805,1.118,1.118,0,0,1-.3.824,1.591,1.591,0,0,1-1.182.422,1.532,1.532,0,0,1-.4-.032V213.7h-.5Zm.5,1.859a1.476,1.476,0,0,0,.409.045c.6,0,.971-.294.971-.824s-.364-.76-.914-.76a2.327,2.327,0,0,0-.466.038Z" transform="translate(-8.995 -75.753)" fill="#d83968"/>
      <path id="Path_930" data-name="Path 930" d="M31.884,211.925H30.408v1.393h1.674v.415H29.91V209.9h2.083v.415H30.408v1.22h1.476Z" transform="translate(-10.797 -75.788)" fill="#d83968"/>
      <path id="Path_931" data-name="Path 931" d="M34.55,209.889a5.173,5.173,0,0,1,.952-.083,1.572,1.572,0,0,1,1.118.319.939.939,0,0,1,.307.728,1.029,1.029,0,0,1-.728.99h0a1,1,0,0,1,.569.78,5.993,5.993,0,0,0,.294,1.061h-.518a5.585,5.585,0,0,1-.256-.92c-.115-.537-.319-.735-.773-.754h-.466v1.674h-.5Zm.5,1.757h.5c.537,0,.875-.294.875-.735s-.364-.716-.888-.722a2.241,2.241,0,0,0-.492.045Z" transform="translate(-12.472 -75.751)" fill="#d83968"/>
      <path id="Path_932" data-name="Path 932" d="M39.411,213.13a1.757,1.757,0,0,0,.895.256c.511,0,.811-.275.811-.639s-.2-.569-.728-.773c-.639-.224-1.022-.549-1.022-1.093a1.112,1.112,0,0,1,1.278-1.048,1.706,1.706,0,0,1,.856.192l-.141.4a1.52,1.52,0,0,0-.735-.185c-.524,0-.728.319-.728.581,0,.364.236.537.773.748.639.249.984.562.984,1.131s-.466,1.067-1.38,1.067a2.026,2.026,0,0,1-.984-.243Z" transform="translate(-14.184 -75.759)" fill="#d83968"/>
      <path id="Path_933" data-name="Path 933" d="M47.4,211.715a1.8,1.8,0,0,1-1.789,2.032,1.77,1.77,0,0,1-1.738-1.962,1.834,1.834,0,0,1,1.8-2.025A1.747,1.747,0,0,1,47.4,211.715Zm-3,.064c0,.824.447,1.559,1.233,1.559s1.24-.722,1.24-1.6c0-.767-.4-1.565-1.233-1.565S44.4,210.929,44.4,211.779Z" transform="translate(-15.835 -75.737)" fill="#d83968"/>
      <path id="Path_934" data-name="Path 934" d="M50.64,213.734V209.9h.543l1.24,1.955a9.66,9.66,0,0,1,.69,1.278h0c-.045-.518-.058-.984-.058-1.585v-1.616h.473v3.834h-.5L51.8,211.8a11.951,11.951,0,0,1-.722-1.278h0c0,.486.038.952.038,1.591v1.648Z" transform="translate(-18.282 -75.788)" fill="#d83968"/>
      <path id="Path_935" data-name="Path 935" d="M57.22,212.52l-.4,1.214H56.3l1.316-3.834h.6l1.316,3.834H59l-.415-1.214Zm1.278-.39-.377-1.112a5.93,5.93,0,0,1-.2-.7h0c-.058.23-.121.46-.2.7l-.377,1.118Z" transform="translate(-20.325 -75.788)" fill="#d83968"/>
      <path id="Path_936" data-name="Path 936" d="M62.47,209.86h.5V213.3h1.655v.415H62.47Z" transform="translate(-22.553 -75.774)" fill="#d83968"/>
      <path id="Path_937" data-name="Path 937" d="M69.06,209.89a4.831,4.831,0,0,1,.907-.083,1.623,1.623,0,0,1,1.061.281.8.8,0,0,1,.319.684.92.92,0,0,1-.639.85h0a1,1,0,0,1,.8.971,1.054,1.054,0,0,1-.326.773,1.917,1.917,0,0,1-1.335.364,6.493,6.493,0,0,1-.773-.045Zm.5,1.578h.447c.53,0,.837-.275.837-.639s-.345-.639-.85-.639a1.866,1.866,0,0,0-.434.038Zm0,1.853a2.33,2.33,0,0,0,.415,0c.518,0,.99-.192.99-.754s-.454-.722-1-.722h-.409Z" transform="translate(-24.933 -75.752)" fill="#d83968"/>
      <path id="Path_938" data-name="Path 938" d="M76.14,211.925h-1.5v1.393h1.674v.415H74.14V209.9h2.083v.415H74.638v1.22h1.5Z" transform="translate(-26.767 -75.788)" fill="#d83968"/>
      <path id="Path_939" data-name="Path 939" d="M79.23,212.52l-.4,1.214H78.31l1.316-3.834h.6l1.316,3.834h-.53L80.6,212.52Zm1.278-.39-.377-1.112c-.083-.249-.141-.479-.2-.7h0c-.058.23-.121.46-.2.7l-.377,1.118Z" transform="translate(-28.273 -75.788)" fill="#d83968"/>
      <path id="Path_940" data-name="Path 940" d="M84.715,209.86v2.287c0,.863.383,1.227.9,1.227s.939-.377.939-1.227V209.86h.5v2.249c0,1.188-.639,1.674-1.463,1.674s-1.386-.454-1.386-1.648V209.86Z" transform="translate(-30.403 -75.774)" fill="#d83968"/>
      <path id="Path_941" data-name="Path 941" d="M90.746,210.282H89.57v-.422H92.4v.422H91.25v3.437h-.5Z" transform="translate(-32.338 -75.774)" fill="#d83968"/>
      <path id="Path_942" data-name="Path 942" d="M95.84,213.719v-1.636l-1.22-2.223h.569l.543,1.067c.153.288.268.524.383.792h0c.109-.249.243-.5.39-.792l.556-1.067h.569l-1.278,2.217v1.642Z" transform="translate(-34.162 -75.774)" fill="#d83968"/>
      <path id="Path_943" data-name="Path 943" d="M102.506,210.282H101.33v-.422h2.862v.422h-1.156v3.437h-.5Z" transform="translate(-36.584 -75.774)" fill="#d83968"/>
      <path id="Path_944" data-name="Path 944" d="M107.2,209.86v1.617h1.872V209.86h.5v3.834h-.5v-1.808H107.2v1.808h-.5V209.86Z" transform="translate(-38.523 -75.774)" fill="#d83968"/>
      <path id="Path_945" data-name="Path 945" d="M114.77,211.925h-1.5v1.393h1.674v.415H112.77V209.9h2.064v.415h-1.591v1.22h1.5Z" transform="translate(-40.715 -75.788)" fill="#d83968"/>
      <path id="Path_946" data-name="Path 946" d="M117.41,209.889a5.173,5.173,0,0,1,.952-.083,1.572,1.572,0,0,1,1.118.319.939.939,0,0,1,.307.728,1.022,1.022,0,0,1-.722.99h0a.971.971,0,0,1,.569.78,6.638,6.638,0,0,0,.294,1.061h-.511a4.792,4.792,0,0,1-.262-.92c-.109-.537-.319-.735-.773-.754h-.466v1.674h-.5Zm.5,1.757h.511c.53,0,.869-.294.869-.735s-.364-.716-.888-.722a2.241,2.241,0,0,0-.492.045Z" transform="translate(-42.39 -75.751)" fill="#d83968"/>
      <path id="Path_947" data-name="Path 947" d="M122.946,212.52l-.4,1.214H122l1.278-3.834h.639l1.316,3.834H124.7l-.409-1.214Zm1.278-.39-.377-1.112c-.089-.249-.147-.479-.2-.7h0c-.058.23-.121.46-.2.7l-.377,1.118Z" transform="translate(-44.048 -75.788)" fill="#d83968"/>
      <path id="Path_948" data-name="Path 948" d="M128.21,209.884a5.969,5.969,0,0,1,.958-.077,1.559,1.559,0,0,1,1.08.326,1.029,1.029,0,0,1,.339.805,1.137,1.137,0,0,1-.294.824,1.61,1.61,0,0,1-1.182.422,1.56,1.56,0,0,1-.4-.032V213.7h-.5Zm.5,1.859a1.508,1.508,0,0,0,.409.045c.639,0,.971-.294.971-.824s-.358-.76-.907-.76a2.35,2.35,0,0,0-.473.038Z" transform="translate(-46.29 -75.753)" fill="#d83968"/>
      <path id="Path_949" data-name="Path 949" d="M133.722,209.86v3.834h-.492V209.86Z" transform="translate(-48.102 -75.774)" fill="#d83968"/>
      <path id="Path_950" data-name="Path 950" d="M135.406,213.13a1.738,1.738,0,0,0,.895.256c.511,0,.811-.275.811-.639s-.211-.569-.728-.773c-.639-.224-1.022-.549-1.022-1.093a1.112,1.112,0,0,1,1.278-1.048,1.681,1.681,0,0,1,.85.192l-.134.4a1.521,1.521,0,0,0-.735-.185c-.524,0-.728.319-.728.581,0,.364.236.537.767.748.639.249.984.562.984,1.131s-.441,1.112-1.348,1.112a2.025,2.025,0,0,1-.984-.243Z" transform="translate(-48.853 -75.759)" fill="#d83968"/>
      <path id="Path_951" data-name="Path 951" d="M140.7,210.282H139.52v-.422h2.862v.422H141.2v3.437h-.5Z" transform="translate(-50.373 -75.774)" fill="#d83968"/>
    </g>
  </g>
</svg>
