<svg xmlns="http://www.w3.org/2000/svg" width="43.147" height="43.147" viewBox="0 0 43.147 43.147">
  <path id="google-plus" d="M21.573,43.147A21.573,21.573,0,1,0,0,21.573,21.581,21.581,0,0,0,21.573,43.147Zm7.7-23.114h3.089V16.946H35.45v3.089h3.062v3.089H35.45v3.089H32.362V23.123H29.273Zm-6.628-6.438-2.923,2.837c-3.739-3.655-11.015-.992-11.015,5.133,0,8.308,11.792,8.876,12.815,2.157h-6.1V20.016h10.17c1.154,6.033-2.742,12.344-10.17,12.344v0a10.777,10.777,0,1,1,7.222-18.767Z" fill="#f44336"/>
</svg>
