<svg xmlns="http://www.w3.org/2000/svg" xmlns:xlink="http://www.w3.org/1999/xlink" width="34.404" height="33.086" viewBox="0 0 34.404 33.086">
  <defs>
    <clipPath id="clip-path">
      <rect width="34.404" height="33.086" fill="none"/>
    </clipPath>
  </defs>
  <g id="Repeat_Grid_7" data-name="Repeat Grid 7" clip-path="url(#clip-path)">
    <g id="Group_600" data-name="Group 600" transform="translate(0 0)">
      <path id="Path_418" data-name="Path 418" d="M33.661,21.845h0L19,7.176a2.543,2.543,0,0,0-3.587,0L.743,21.845A2.537,2.537,0,0,0,4.33,25.432l1-1V37.874a1.72,1.72,0,0,0,1.786,1.638h4.865a.41.41,0,0,0,.41-.41V31.133a4.816,4.816,0,0,1,9.632,0V39.11a.41.41,0,0,0,.41.41h4.857a1.72,1.72,0,0,0,1.786-1.638V24.429l1,1a2.537,2.537,0,1,0,3.587-3.587Zm-5.4,16.029a.905.905,0,0,1-.966.819H22.837v-7.56a5.635,5.635,0,1,0-11.27,0V38.7H7.115a.905.905,0,0,1-.966-.819V23.61L17.206,12.553,28.263,23.61Zm4.828-13.023a1.72,1.72,0,0,1-2.428,0l-1.7-1.7L17.488,11.684a.41.41,0,0,0-.577,0L5.444,23.151l-1.7,1.7a1.717,1.717,0,1,1-2.428-2.428L15.973,7.757a1.724,1.724,0,0,1,2.428,0L33.067,22.422a1.72,1.72,0,0,1,.016,2.428Z" transform="translate(0 -6.435)" fill="#2b3990"/>
    </g>
  </g>
</svg>
