<svg xmlns="http://www.w3.org/2000/svg" width="15.857" height="20.848" viewBox="0 0 15.857 20.848">
  <g id="man-user_2_" data-name="man-user (2)" transform="translate(-41.895)">
    <path id="Path_1072" data-name="Path 1072" d="M108.732,10.2c2.318,0,4.2-2.282,4.2-5.1s-.617-5.1-4.2-5.1-4.2,2.282-4.2,5.1S106.414,10.2,108.732,10.2Z" transform="translate(-58.909)" fill="#fff"/>
    <path id="Path_1073" data-name="Path 1073" d="M41.9,300.46c0-.172,0-.048,0,0Z" transform="translate(0 -282.48)" fill="#fff"/>
    <path id="Path_1074" data-name="Path 1074" d="M308.085,301.642c0-.047,0-.326,0,0Z" transform="translate(-250.334 -283.528)" fill="#fff"/>
    <path id="Path_1075" data-name="Path 1075" d="M57.754,184.927c-.078-4.9-.718-6.3-5.62-7.187a3.443,3.443,0,0,1-4.6,0c-4.848.875-5.528,2.252-5.617,7.028-.007.39-.011.41-.012.365,0,.085,0,.242,0,.515,0,0,1.167,2.353,7.927,2.353s7.927-2.353,7.927-2.353c0-.176,0-.3,0-.381A3.16,3.16,0,0,1,57.754,184.927Z" transform="translate(-0.012 -167.153)" fill="#fff"/>
  </g>
</svg>
