<svg xmlns="http://www.w3.org/2000/svg" width="20.502" height="23" viewBox="0 0 20.502 23">
  <g id="logout_3_" data-name="logout (3)" transform="translate(-2.498 6.5)">
    <path id="Path_214" data-name="Path 214" d="M14.375,12.458a.958.958,0,0,0-.958.958V17.25a.959.959,0,0,1-.958.958H9.583V3.833A1.932,1.932,0,0,0,8.278,2.011l-.284-.095h4.464a.959.959,0,0,1,.958.958V5.75a.958.958,0,1,0,1.917,0V2.875A2.879,2.879,0,0,0,12.458,0H2.156a.753.753,0,0,0-.1.021C2.008.017,1.964,0,1.917,0A1.919,1.919,0,0,0,0,1.917v17.25a1.932,1.932,0,0,0,1.305,1.822l5.767,1.923A1.984,1.984,0,0,0,7.667,23a1.918,1.918,0,0,0,1.917-1.917v-.958h2.875a2.879,2.879,0,0,0,2.875-2.875V13.416a.958.958,0,0,0-.958-.958Zm0,0" transform="translate(2.498 -6.5)" fill="#fff"/>
    <path id="Path_215" data-name="Path 215" d="M10.261,4.114,6.427.281A.958.958,0,0,0,4.792.959V3.834H.958a.958.958,0,1,0,0,1.917H4.792V8.625A.958.958,0,0,0,6.427,9.3l3.833-3.833a.957.957,0,0,0,0-1.355Zm0,0" transform="translate(12.458 0.5)" fill="#fff"/>
  </g>
</svg>
