<svg xmlns="http://www.w3.org/2000/svg" width="68" height="66" viewBox="0 0 68 66">
  <g id="Group_2030" data-name="Group 2030" transform="translate(-752 -237)">
    <g id="calendar_2_" data-name="calendar (2)" transform="translate(770 229)">
      <path id="Path_1084" data-name="Path 1084" d="M32.43,35.156V30.995a3.028,3.028,0,0,0-2.85-3.174H29.2V31.7a.956.956,0,1,1-1.9,0V26.058a.956.956,0,1,0-1.9,0v1.763H19.065V31.7a.956.956,0,1,1-1.9,0V26.058a.956.956,0,1,0-1.9,0v1.763H8.931V31.7a1.008,1.008,0,0,1-.95,1.058,1.008,1.008,0,0,1-.95-1.058V26.058A1.008,1.008,0,0,0,6.081,25a1.008,1.008,0,0,0-.95,1.058v1.763H2.85A3.028,3.028,0,0,0,0,30.995v4.161Z" transform="translate(0 0)" fill="#fff"/>
      <path id="Path_1085" data-name="Path 1085" d="M0,199v17.138a3.029,3.029,0,0,0,2.85,3.174H29.58a3.029,3.029,0,0,0,2.85-3.174V199Zm9.121,14.669H7.094a1.064,1.064,0,0,1,0-2.116H9.121a1.064,1.064,0,0,1,0,2.116Zm0-4.514H7.094a1.064,1.064,0,0,1,0-2.116H9.121a1.064,1.064,0,0,1,0,2.116Zm0-4.514H7.094a1.064,1.064,0,0,1,0-2.116H9.121a1.064,1.064,0,0,1,0,2.116Zm8.107,9.027H15.2a1.064,1.064,0,0,1,0-2.116h2.027a1.064,1.064,0,0,1,0,2.116Zm0-4.514H15.2a1.064,1.064,0,0,1,0-2.116h2.027a1.064,1.064,0,0,1,0,2.116Zm0-4.514H15.2a1.064,1.064,0,0,1,0-2.116h2.027a1.064,1.064,0,0,1,0,2.116Zm8.107,9.027H23.309a1.064,1.064,0,0,1,0-2.116h2.027a1.064,1.064,0,0,1,0,2.116Zm0-4.514H23.309a1.064,1.064,0,0,1,0-2.116h2.027a1.064,1.064,0,0,1,0,2.116Zm0-4.514H23.309a1.064,1.064,0,0,1,0-2.116h2.027a1.064,1.064,0,0,1,0,2.116Z" transform="translate(0 -161.729)" fill="#fff"/>
    </g>
    <g id="Rectangle_565" data-name="Rectangle 565" transform="translate(752 237)" fill="none" stroke="#fff" stroke-width="1">
      <rect width="68" height="66" rx="10" stroke="none"/>
      <rect x="0.5" y="0.5" width="67" height="65" rx="9.5" fill="none"/>
    </g>
  </g>
</svg>
