<svg id="dashboard" xmlns="http://www.w3.org/2000/svg" width="19" height="19" viewBox="0 0 19 19">
  <path id="Path_1125" data-name="Path 1125" d="M7.323,0H1.385A1.387,1.387,0,0,0,0,1.385V4.948A1.387,1.387,0,0,0,1.385,6.333H7.323A1.387,1.387,0,0,0,8.708,4.948V1.385A1.387,1.387,0,0,0,7.323,0Zm0,0" fill="#fff"/>
  <path id="Path_1126" data-name="Path 1126" d="M7.323,213.332H1.385A1.387,1.387,0,0,0,0,214.717v8.313a1.387,1.387,0,0,0,1.385,1.385H7.323a1.387,1.387,0,0,0,1.386-1.385v-8.313A1.387,1.387,0,0,0,7.323,213.332Zm0,0" transform="translate(0 -205.415)" fill="#fff"/>
  <path id="Path_1127" data-name="Path 1127" d="M284.655,341.332h-5.937a1.387,1.387,0,0,0-1.385,1.385v3.562a1.387,1.387,0,0,0,1.385,1.385h5.937a1.387,1.387,0,0,0,1.385-1.385v-3.562A1.387,1.387,0,0,0,284.655,341.332Zm0,0" transform="translate(-267.04 -328.665)" fill="#fff"/>
  <path id="Path_1128" data-name="Path 1128" d="M284.655,0h-5.937a1.387,1.387,0,0,0-1.385,1.385V9.7a1.387,1.387,0,0,0,1.385,1.386h5.937A1.387,1.387,0,0,0,286.04,9.7V1.385A1.387,1.387,0,0,0,284.655,0Zm0,0" transform="translate(-267.04)" fill="#fff"/>
</svg>
