<svg xmlns="http://www.w3.org/2000/svg" width="20.999" height="18.538" viewBox="0 0 20.999 18.538">
  <g id="like_2_" data-name="like (2)" transform="translate(-5 -32)">
    <g id="Group_1837" data-name="Group 1837" transform="translate(0 30)">
      <path id="Path_1081" data-name="Path 1081" d="M15.421,30a4.972,4.972,0,0,0-3.1,1.073A7.073,7.073,0,0,0,10.5,33.258a7.072,7.072,0,0,0-1.817-2.185A4.972,4.972,0,0,0,5.578,30C2.4,30,0,32.6,0,36.05c0,3.726,2.992,6.276,7.52,10.135.769.655,1.641,1.4,2.547,2.191a.656.656,0,0,0,.864,0c.906-.792,1.778-1.535,2.547-2.191C18.007,42.326,21,39.776,21,36.05,21,32.6,18.6,30,15.421,30Z" transform="translate(5 -28)" fill="#fff"/>
    </g>
  </g>
</svg>
