<svg xmlns="http://www.w3.org/2000/svg" width="23.725" height="21.957" viewBox="0 0 23.725 21.957">
  <g id="box" transform="translate(-23 -40.717)">
    <path id="Path_1076" data-name="Path 1076" d="M126.144,101.322l8.84-5.1-4.158-2.4-8.84,5.1Z" transform="translate(-93.947 -50.398)" fill="#fff"/>
    <path id="Path_1077" data-name="Path 1077" d="M31.859,158.189,23,153.085v10.209l8.859,5.1Z" transform="translate(0 -106.647)" fill="#fff"/>
    <rect id="Rectangle_527" data-name="Rectangle 527" width="0.967" height="0.967" transform="translate(39.699 56.768)" fill="#fff"/>
    <path id="Path_1078" data-name="Path 1078" d="M211,158.189V168.4l4.837-2.8v-7.37a1.529,1.529,0,0,1,1.522-1.537h1.268a1.249,1.249,0,0,1,1.192-.916h-.011v-2.694Z" transform="translate(-178.429 -106.647)" fill="#fff"/>
    <rect id="Rectangle_528" data-name="Rectangle 528" width="3.106" height="1.069" rx="0.535" transform="translate(40.87 49.845)" fill="#fff"/>
    <path id="Path_1079" data-name="Path 1079" d="M42.823,43.009l-3.97-2.292-8.84,5.1,3.97,2.292Z" transform="translate(-6.656 0)" fill="#fff"/>
    <path id="Path_1080" data-name="Path 1080" d="M327.784,238H326.5a1.219,1.219,0,0,1-1.178.865h-2.055A1.219,1.219,0,0,1,322.09,238h-1.282a.816.816,0,0,0-.809.824v10.289a.8.8,0,0,0,.809.8h6.976a.8.8,0,0,0,.819-.8V238.824a.824.824,0,0,0-.819-.824Zm-6.92,2.395a.356.356,0,0,1,.354-.358H322.9a.361.361,0,0,1,.36.358v.24a.357.357,0,0,1-.358.356.343.343,0,0,1-.339-.241h-.983v.967h.014a.356.356,0,0,1,0,.713h-.373a.354.354,0,0,1-.354-.356Zm0,3.257a.356.356,0,0,1,.356-.356h1.68a.356.356,0,0,1,.356.356v1.68a.356.356,0,0,1-.356.356h-1.68a.356.356,0,0,1-.356-.356Zm.727,5.295h-.373a.344.344,0,0,1-.354-.344v-1.679a.366.366,0,0,1,.354-.37H322.9a.372.372,0,0,1,.36.37v.343a.358.358,0,1,1-.716,0h-.964v.967h.014a.356.356,0,1,1,0,.713Zm2.63-1.388-1.3,1.3a.356.356,0,0,1-.5,0l-.57-.57a.356.356,0,0,1,.5-.5l.317.318,1.044-1.044a.356.356,0,0,1,.5.5Zm0-6.58-1.3,1.3a.356.356,0,0,1-.5,0l-.57-.57a.356.356,0,0,1,.5-.5l.317.318,1.044-1.044a.356.356,0,0,1,.5.5Zm3.152,7.153h-2.238a.356.356,0,1,1,0-.713h2.238a.356.356,0,1,1,0,.713Zm0-3.258h-2.238a.356.356,0,1,1,0-.713h2.238a.356.356,0,1,1,0,.713Zm0-3.258h-2.238a.356.356,0,1,1,0-.713h2.238a.356.356,0,1,1,0,.713Z" transform="translate(-281.879 -187.239)" fill="#fff"/>
  </g>
</svg>
