<svg xmlns="http://www.w3.org/2000/svg" width="23.924" height="23.924" viewBox="0 0 23.924 23.924">
  <g id="Group_2122" data-name="Group 2122" transform="translate(0 0)">
    <path id="Path_1138" data-name="Path 1138" d="M0,150v.7a2.105,2.105,0,0,0,2.1,2.1h.7v7.232a2.1,2.1,0,0,0-1.4,1.974v.7H22.523v-.7a2.1,2.1,0,0,0-1.4-1.974V152.8h.7a2.105,2.105,0,0,0,2.1-2.1V150Zm9.813,9.906h-2.8v-7.1h2.8Zm7.1,0h-2.8v-7.1h2.8Z" transform="translate(0 -142.991)" fill="#fff"/>
    <path id="Path_1139" data-name="Path 1139" d="M23.242.074a.915.915,0,0,0-.72,0L11.455,5.608H34.309Z" transform="translate(-10.92 0)" fill="#fff"/>
    <path id="Path_1140" data-name="Path 1140" d="M0,452v2.1a.7.7,0,0,0,.7.7H23.223a.7.7,0,0,0,.7-.7V452Z" transform="translate(0 -430.879)" fill="#fff"/>
  </g>
</svg>
