<svg xmlns="http://www.w3.org/2000/svg" width="23.245" height="19.852" viewBox="0 0 23.245 19.852">
  <g id="review" transform="translate(3.046 -40.472)">
    <g id="Group_2024" data-name="Group 2024" transform="translate(-3.046 40.472)">
      <g id="Group_2023" data-name="Group 2023" transform="translate(0 0)">
        <path id="Path_1131" data-name="Path 1131" d="M177.514,40.054a14.1,14.1,0,0,0-16.263,0,8.193,8.193,0,0,0-3.491,6.486,7.359,7.359,0,0,0,.795,3.31,8.848,8.848,0,0,0,1.81,2.42l-1.845,3.967a.768.768,0,0,0,.337,1.011.709.709,0,0,0,.709-.04l4.243-2.711a13.607,13.607,0,0,0,2.5.783,14.8,14.8,0,0,0,3.076.322,13.465,13.465,0,0,0,8.132-2.581,7.766,7.766,0,0,0,0-12.967Zm-2.621,5.263v.006h0a.765.765,0,0,1-.181.353l-1.884,2.236.251,3a.753.753,0,0,1-.668.824.713.713,0,0,1-.408-.086l-2.618-1.141L166.7,51.688a.721.721,0,0,1-.959-.4.781.781,0,0,1-.056-.369l.251-3-1.905-2.286a.779.779,0,0,1,.08-1.072.725.725,0,0,1,.309-.162l2.83-.68,1.5-2.558a.721.721,0,0,1,1.007-.264.748.748,0,0,1,.255.264l1.491,2.567,2.83.68A.761.761,0,0,1,174.893,45.317Z" transform="translate(-157.76 -37.472)" fill="#fff"/>
      </g>
    </g>
  </g>
</svg>
