<svg xmlns="http://www.w3.org/2000/svg" width="18.326" height="21.993" viewBox="0 0 18.326 21.993">
  <g id="Group_2170" data-name="Group 2170" transform="translate(-21.751 -65)">
    <path id="Path_1083" data-name="Path 1083" d="M188.815,469.333a3.188,3.188,0,0,0,5.771,0Z" transform="translate(-160.786 -384.173)" fill="#fff"/>
    <path id="Path_1082" data-name="Path 1082" d="M60.937,18.55l-1.573-2.623a7.79,7.79,0,0,1-1.111-4.008v-2.3a6.423,6.423,0,0,0-4.582-6.144V1.833a1.833,1.833,0,0,0-3.665,0V3.478a6.423,6.423,0,0,0-4.582,6.144v2.3a7.8,7.8,0,0,1-1.11,4.007L42.74,18.549a.459.459,0,0,0,.392.695H60.544a.458.458,0,0,0,.393-.694Z" transform="translate(-20.924 65)" fill="#fff"/>
  </g>
</svg>
