<svg xmlns="http://www.w3.org/2000/svg" width="20.42" height="25.533" viewBox="0 0 20.42 25.533">
  <g id="document" transform="translate(-61)">
    <path id="Path_1143" data-name="Path 1143" d="M75.085,7.48a1.793,1.793,0,0,1-1.833-1.745V0H63.88A2.817,2.817,0,0,0,61,2.743V22.79a2.817,2.817,0,0,0,2.88,2.743H78.54a2.817,2.817,0,0,0,2.88-2.743V7.48ZM65.293,17.953H69.1a.749.749,0,1,1,0,1.5H65.293a.749.749,0,1,1,0-1.5Zm-.785-3.241a.767.767,0,0,1,.785-.748H76.812a.749.749,0,1,1,0,1.5H65.293A.767.767,0,0,1,64.508,14.711Zm12.3-4.738a.749.749,0,1,1,0,1.5H65.293a.749.749,0,1,1,0-1.5Z" fill="#fff"/>
    <path id="Path_1144" data-name="Path 1144" d="M325,11.646a.256.256,0,0,0,.262.249h5.985a2.756,2.756,0,0,0-.551-.685l-5.049-4.549a2.89,2.89,0,0,0-.648-.44v5.425Z" transform="translate(-250.177 -5.911)" fill="#fff"/>
  </g>
</svg>
