<svg xmlns="http://www.w3.org/2000/svg" width="20" height="20" viewBox="0 0 20 20">
  <g id="_7930137721551682747" data-name="7930137721551682747" transform="translate(-13.391 -5.604)">
    <path id="Path_3" data-name="Path 3" d="M25.458,7.62l-2.084-.536a.521.521,0,0,0-.643.416c-.005.03-.007.048-.01.063a1.389,1.389,0,0,1-2.691-.691c.006-.015.013-.032.022-.061a.521.521,0,0,0-.363-.674L17.677,5.62A.521.521,0,0,0,17.043,6L13.407,20.141a.521.521,0,0,0,.375.634l4.181,1.075c-.04-.033-.08-.068-.12-.105a.612.612,0,0,1-.1-.737c.05-.086.113-.162.165-.247L14.546,19.9,17.923,6.759l1.029.265a2.432,2.432,0,0,0,4.641,1.193l1.1.283-.656,2.554a.67.67,0,0,1,.831.222.561.561,0,0,1,.18.031l.784-3.052A.521.521,0,0,0,25.458,7.62Z" transform="translate(0 0)" fill="#fff"/>
    <path id="Path_4" data-name="Path 4" d="M30.02,31.024a.356.356,0,0,1-.087-.011l-.421-.108a.347.347,0,1,1,.173-.673l.421.108a.347.347,0,0,1-.086.684Z" transform="translate(-13.106 -20.341)" fill="#fff"/>
    <path id="Path_5" data-name="Path 5" d="M41.754,34.039a.356.356,0,0,1-.087-.011l-.763-.2a.347.347,0,1,1,.173-.673l.763.2a.347.347,0,0,1-.087.684Zm-1.526-.392a.356.356,0,0,1-.087-.011l-.763-.2a.347.347,0,1,1,.173-.673l.763.2a.347.347,0,0,1-.086.684ZM38.7,33.254a.348.348,0,0,1-.087-.011l-.763-.2a.347.347,0,1,1,.173-.673l.763.2a.347.347,0,0,1-.087.684Zm-1.526-.392a.356.356,0,0,1-.087-.011l-.763-.2a.347.347,0,1,1,.173-.673l.763.2a.347.347,0,0,1-.087.684Z" transform="translate(-18.52 -21.787)" fill="#fff"/>
    <path id="Path_6" data-name="Path 6" d="M27.363,63.077a.356.356,0,0,1-.087-.011.348.348,0,0,1-.25-.423l.923-3.59a.348.348,0,0,1,.673.173l-.923,3.59A.348.348,0,0,1,27.363,63.077Z" transform="translate(-11.258 -43.949)" fill="#fff"/>
    <path id="Path_7" data-name="Path 7" d="M40.55,48.313a.356.356,0,0,1-.087-.011.348.348,0,0,1-.25-.423l.773-3.007a.348.348,0,0,1,.673.173l-.773,3.007A.348.348,0,0,1,40.55,48.313Z" transform="translate(-21.965 -32.231)" fill="#fff"/>
    <path id="Path_8" data-name="Path 8" d="M34.066,45.081a.359.359,0,0,1-.087-.011.348.348,0,0,1-.25-.423l.486-1.881a.347.347,0,0,1,.673.174L34.4,44.821A.348.348,0,0,1,34.066,45.081Z" transform="translate(-16.655 -30.491)" fill="#fff"/>
    <path id="Path_9" data-name="Path 9" d="M49.528,49.073a.356.356,0,0,1-.087-.011.348.348,0,0,1-.25-.423l.487-1.9a.348.348,0,0,1,.673.173l-.487,1.9A.348.348,0,0,1,49.528,49.073Z" transform="translate(-29.323 -33.777)" fill="#fff"/>
    <path id="Path_10" data-name="Path 10" d="M31.633,40.395h-.018a.552.552,0,0,1-.379-.165l-5.724-5.863a.506.506,0,0,1,.025-.737l11.109-9.985a.559.559,0,0,1,.768.024l1.48,1.516a.51.51,0,0,1,.145.394.516.516,0,0,1-.2.37l-.052.038a1.352,1.352,0,0,0-.067,1.964,1.492,1.492,0,0,0,2.046.064l.043-.047a.553.553,0,0,1,.4-.171h0a.554.554,0,0,1,.4.165l1.533,1.57a.506.506,0,0,1-.025.737L32,40.254A.557.557,0,0,1,31.633,40.395Zm-4.957-6.36,4.982,5.1,10.317-9.273-.81-.83a2.616,2.616,0,0,1-3.24-.371,2.361,2.361,0,0,1-.174-3.126l-.757-.776Z" transform="translate(-9.895 -14.791)" fill="#fff"/>
    <path id="Path_11" data-name="Path 11" d="M70.577,42.186a.347.347,0,0,1-.254-.11l-.3-.317a.347.347,0,0,1,.507-.475l.3.317a.348.348,0,0,1-.254.585Z" transform="translate(-46.33 -29.392)" fill="#fff"/>
    <path id="Path_12" data-name="Path 12" d="M78.86,51.026a.347.347,0,0,1-.254-.11l-.539-.575a.347.347,0,1,1,.507-.475l.539.575a.347.347,0,0,1-.254.585Zm-1.077-1.15a.347.347,0,0,1-.254-.11l-.539-.575a.347.347,0,0,1,.507-.475l.539.575a.347.347,0,0,1-.254.585ZM76.7,48.727a.347.347,0,0,1-.254-.11l-.539-.575a.347.347,0,1,1,.507-.475l.539.575a.348.348,0,0,1-.254.585Zm-1.077-1.15a.347.347,0,0,1-.254-.11l-.539-.575a.347.347,0,0,1,.507-.475l.539.575a.347.347,0,0,1-.254.585Z" transform="translate(-50.171 -33.632)" fill="#fff"/>
    <path id="Path_13" data-name="Path 13" d="M100.193,73.8a.347.347,0,0,1-.254-.11l-.3-.317a.347.347,0,0,1,.507-.475l.3.317a.347.347,0,0,1-.254.585Z" transform="translate(-70.597 -55.513)" fill="#fff"/>
    <path id="Path_14" data-name="Path 14" d="M41.971,70.163a.347.347,0,0,1-.237-.6l2.7-2.534a.347.347,0,1,1,.475.507l-2.7,2.534A.346.346,0,0,1,41.971,70.163Z" transform="translate(-23.104 -50.677)" fill="#fff"/>
    <path id="Path_15" data-name="Path 15" d="M47.72,82.158a.347.347,0,0,1-.237-.6l1.39-1.3a.347.347,0,1,1,.475.507l-1.39,1.3A.346.346,0,0,1,47.72,82.158Z" transform="translate(-27.83 -61.607)" fill="#fff"/>
    <path id="Path_16" data-name="Path 16" d="M62.507,64.4a.347.347,0,0,1-.237-.6l2.266-2.123a.347.347,0,1,1,.475.507l-2.266,2.123A.346.346,0,0,1,62.507,64.4Z" transform="translate(-39.92 -46.255)" fill="#fff"/>
    <path id="Path_17" data-name="Path 17" d="M61.644,57.457a.347.347,0,0,1-.237-.6l1.419-1.327a.347.347,0,0,1,.475.508l-1.419,1.327A.347.347,0,0,1,61.644,57.457Z" transform="translate(-39.232 -41.174)" fill="#fff"/>
    <path id="Path_18" data-name="Path 18" d="M52.9,81.821a.347.347,0,0,1-.237-.6l2.7-2.534a.347.347,0,0,1,.475.507l-2.7,2.534A.347.347,0,0,1,52.9,81.821Z" transform="translate(-32.044 -60.31)" fill="#fff"/>
    <path id="Path_19" data-name="Path 19" d="M59.217,94.431a.347.347,0,0,1-.237-.6l1.39-1.3a.347.347,0,0,1,.475.507l-1.39,1.3A.346.346,0,0,1,59.217,94.431Z" transform="translate(-37.245 -71.748)" fill="#fff"/>
    <path id="Path_20" data-name="Path 20" d="M74,76.671a.347.347,0,0,1-.237-.6l2.267-2.123a.347.347,0,1,1,.475.507l-2.267,2.123A.346.346,0,0,1,74,76.671Z" transform="translate(-49.33 -56.394)" fill="#fff"/>
    <path id="Path_21" data-name="Path 21" d="M72.514,69.128a.347.347,0,0,1-.237-.6l1.428-1.338a.347.347,0,1,1,.475.507l-1.428,1.338A.346.346,0,0,1,72.514,69.128Z" transform="translate(-48.134 -50.809)" fill="#fff"/>
  </g>
</svg>
