<svg xmlns="http://www.w3.org/2000/svg" width="18.844" height="17.004" viewBox="0 0 18.844 17.004">
  <g id="calendar_2_" data-name="calendar (2)" transform="translate(0 -25)">
    <path id="Path_1084" data-name="Path 1084" d="M18.844,30.3V28.128a1.658,1.658,0,0,0-1.656-1.656h-.221V28.5a.552.552,0,0,1-1.1,0V25.552a.552.552,0,1,0-1.1,0v.92H11.078V28.5a.552.552,0,0,1-1.1,0V25.552a.552.552,0,1,0-1.1,0v.92H5.19V28.5a.552.552,0,0,1-1.1,0V25.552a.552.552,0,1,0-1.1,0v.92H1.656A1.658,1.658,0,0,0,0,28.128V30.3Z" transform="translate(0 0)" fill="#fff"/>
    <path id="Path_1085" data-name="Path 1085" d="M0,199v8.944A1.658,1.658,0,0,0,1.656,209.6H17.188a1.658,1.658,0,0,0,1.656-1.656V199Zm5.3,7.655H4.122a.552.552,0,1,1,0-1.1H5.3a.552.552,0,1,1,0,1.1Zm0-2.355H4.122a.552.552,0,1,1,0-1.1H5.3a.552.552,0,1,1,0,1.1Zm0-2.356H4.122a.552.552,0,1,1,0-1.1H5.3a.552.552,0,1,1,0,1.1Zm4.711,4.711H8.833a.552.552,0,1,1,0-1.1h1.178a.552.552,0,1,1,0,1.1Zm0-2.355H8.833a.552.552,0,1,1,0-1.1h1.178a.552.552,0,1,1,0,1.1Zm0-2.356H8.833a.552.552,0,1,1,0-1.1h1.178a.552.552,0,1,1,0,1.1Zm4.711,4.711H13.544a.552.552,0,1,1,0-1.1h1.178a.552.552,0,1,1,0,1.1Zm0-2.355H13.544a.552.552,0,1,1,0-1.1h1.178a.552.552,0,1,1,0,1.1Zm0-2.356H13.544a.552.552,0,1,1,0-1.1h1.178a.552.552,0,1,1,0,1.1Z" transform="translate(0 -167.596)" fill="#fff"/>
  </g>
</svg>
