<svg xmlns="http://www.w3.org/2000/svg" width="68" height="66" viewBox="0 0 68 66">
  <g id="Group_2030" data-name="Group 2030" transform="translate(-752 -237)">
    <g id="Rectangle_565" data-name="Rectangle 565" transform="translate(752 237)" fill="none" stroke="#fff" stroke-width="1">
      <rect width="68" height="66" rx="10" stroke="none"/>
      <rect x="0.5" y="0.5" width="67" height="65" rx="9.5" fill="none"/>
    </g>
    <g id="box" transform="translate(742.281 209.618)">
      <path id="Path_1076" data-name="Path 1076" d="M129.258,106.944l15.462-8.927-7.272-4.2-15.462,8.927Z" transform="translate(-90.171 -48.372)" fill="#fff"/>
      <path id="Path_1077" data-name="Path 1077" d="M38.494,162.013,23,153.085v17.857l15.494,8.928Z" transform="translate(0 -102.362)" fill="#fff"/>
      <rect id="Rectangle_527" data-name="Rectangle 527" width="1.692" height="1.692" transform="translate(52.208 68.792)" fill="#fff"/>
      <path id="Path_1078" data-name="Path 1078" d="M211,162.013V179.87l8.459-4.892V162.087a2.675,2.675,0,0,1,2.662-2.688h2.218a2.184,2.184,0,0,1,2.085-1.6h-.019v-4.712Z" transform="translate(-171.259 -102.362)" fill="#fff"/>
      <rect id="Rectangle_528" data-name="Rectangle 528" width="5.432" height="1.87" rx="0.935" transform="translate(54.256 56.682)" fill="#fff"/>
      <path id="Path_1079" data-name="Path 1079" d="M52.419,44.726l-6.943-4.009L30.013,49.644l6.943,4.009Z" transform="translate(-6.389)" fill="#fff"/>
      <path id="Path_1080" data-name="Path 1080" d="M333.616,238h-2.242a2.132,2.132,0,0,1-2.061,1.514h-3.6A2.132,2.132,0,0,1,323.657,238h-2.242A1.427,1.427,0,0,0,320,239.441v18a1.392,1.392,0,0,0,1.415,1.4h12.2a1.406,1.406,0,0,0,1.432-1.4v-18A1.441,1.441,0,0,0,333.616,238Zm-12.1,4.188a.622.622,0,0,1,.619-.626h2.936a.632.632,0,0,1,.63.626v.419a.625.625,0,0,1-.627.622.6.6,0,0,1-.593-.421H322.76V244.5h.025a.623.623,0,0,1,0,1.247h-.652a.619.619,0,0,1-.619-.623Zm0,5.7a.623.623,0,0,1,.623-.623h2.939a.623.623,0,0,1,.623.623v2.939a.623.623,0,0,1-.623.623h-2.939a.624.624,0,0,1-.623-.623Zm1.271,9.261h-.653a.6.6,0,0,1-.619-.6v-2.936a.641.641,0,0,1,.619-.647h2.936a.65.65,0,0,1,.63.647v.6a.626.626,0,1,1-1.253,0H322.76V255.9h.025a.623.623,0,0,1,0,1.247Zm4.6-2.427-2.267,2.267a.623.623,0,0,1-.882,0l-1-1a.623.623,0,0,1,.882-.882l.555.555,1.825-1.826a.623.623,0,0,1,.882.882Zm0-11.509-2.267,2.266a.623.623,0,0,1-.882,0l-1-1a.623.623,0,0,1,.882-.882l.555.555,1.825-1.826a.623.623,0,1,1,.882.882Zm5.513,12.512h-3.915a.623.623,0,1,1,0-1.247H332.9a.623.623,0,1,1,0,1.247Zm0-5.7h-3.915a.623.623,0,1,1,0-1.247H332.9a.623.623,0,1,1,0,1.247Zm0-5.7h-3.915a.623.623,0,1,1,0-1.247H332.9a.623.623,0,1,1,0,1.247Z" transform="translate(-270.552 -179.715)" fill="#fff"/>
    </g>
  </g>
</svg>
