<svg id="bad-review" xmlns="http://www.w3.org/2000/svg" width="20.479" height="20.479" viewBox="0 0 20.479 20.479">
  <path id="Path_1086" data-name="Path 1086" d="M421,146.6l3.64-2.7v-.371l-3.64-1.8Z" transform="translate(-404.161 -136.059)" fill="#fff"/>
  <path id="Path_1087" data-name="Path 1087" d="M3.64,141.728,0,143.528v.371l3.64,2.7Z" transform="translate(0 -136.059)" fill="#fff"/>
  <path id="Path_1088" data-name="Path 1088" d="M0,233.485v11.14H20.479V233.486l-10.239,7.65Z" transform="translate(0 -224.146)" fill="#fff"/>
  <path id="Path_1089" data-name="Path 1089" d="M121,11.439l5.4,4.05,5.4-4.05V0H121Zm3.351-6,.848-.848,1.2,1.2,1.2-1.2.848.848-1.2,1.2,1.2,1.2-.848.848-1.2-1.2-1.2,1.2-.848-.848,1.2-1.2Z" transform="translate(-116.16)" fill="#fff"/>
</svg>
