<svg xmlns="http://www.w3.org/2000/svg" width="75.604" height="63.127" viewBox="0 0 75.604 63.127">
  <g id="group" transform="translate(-7 -44.07)">
    <g id="Group_2006" data-name="Group 2006" transform="translate(7 44.07)">
      <g id="Group_2000" data-name="Group 2000" transform="translate(14.372 3.359)">
        <g id="XMLID_29_">
          <g id="Group_1999" data-name="Group 1999">
            <path id="Path_1119" data-name="Path 1119" d="M134.6,259.913v.02a34.92,34.92,0,0,1-46.9,0v-.02a23.447,23.447,0,0,1,13.382-21.181,13.387,13.387,0,0,0,20.136,0A23.444,23.444,0,0,1,134.6,259.913Z" transform="translate(-87.705 -209.209)" fill="#3e4b9c"/>
            <path id="Path_1120" data-name="Path 1120" d="M164.619,58.571a12.969,12.969,0,0,1,12.97,12.969c0,7.164-5.807,16.961-12.97,16.961s-12.97-9.8-12.97-16.961A12.969,12.969,0,0,1,164.619,58.571Z" transform="translate(-141.17 -58.571)" fill="#f95da9"/>
          </g>
        </g>
      </g>
      <g id="Group_2005" data-name="Group 2005" transform="translate(0 0)">
        <g id="Group_2002" data-name="Group 2002">
          <g id="XMLID_27_">
            <g id="Group_2001" data-name="Group 2001">
              <path id="Path_1121" data-name="Path 1121" d="M26.89,198.059q.6.85,1.234,1.6l-1.294.615A25.6,25.6,0,0,0,12.4,220.338,30.346,30.346,0,0,1,0,213.53v-.017a20.434,20.434,0,0,1,11.661-18.458,12.43,12.43,0,0,0,8.771,3.977,11.369,11.369,0,0,0,5.947-1.736C26.543,197.554,26.715,197.809,26.89,198.059Z" transform="translate(0 -169.33)" fill="#3e4b9c"/>
              <path id="Path_1122" data-name="Path 1122" d="M69.291,54.4a21.15,21.15,0,0,0,1.946,8.44,7.858,7.858,0,0,1-4.217,1.312c-6.242,0-11.3-8.537-11.3-14.78a11.3,11.3,0,0,1,19.935-7.292A15.115,15.115,0,0,0,69.291,54.4Z" transform="translate(-46.588 -38.071)" fill="#f95da9"/>
            </g>
          </g>
        </g>
        <g id="Group_2004" data-name="Group 2004" transform="translate(46.539)">
          <g id="XMLID_22_">
            <g id="Group_2003" data-name="Group 2003">
              <path id="Path_1123" data-name="Path 1123" d="M290.975,198.059q-.6.85-1.234,1.6l1.294.615a25.6,25.6,0,0,1,14.427,20.067,30.347,30.347,0,0,0,12.4-6.808v-.017A20.434,20.434,0,0,0,306.2,195.055a12.43,12.43,0,0,1-8.771,3.977,11.369,11.369,0,0,1-5.947-1.736C291.322,197.554,291.15,197.809,290.975,198.059Z" transform="translate(-288.8 -169.33)" fill="#3e4b9c"/>
              <path id="Path_1124" data-name="Path 1124" d="M290.362,54.4a21.15,21.15,0,0,1-1.946,8.44,7.858,7.858,0,0,0,4.217,1.312c6.242,0,11.3-8.537,11.3-14.78A11.3,11.3,0,0,0,284,42.079,15.115,15.115,0,0,1,290.362,54.4Z" transform="translate(-283.999 -38.071)" fill="#f95da9"/>
            </g>
          </g>
        </g>
      </g>
    </g>
  </g>
</svg>
