<svg xmlns="http://www.w3.org/2000/svg" width="66.587" height="79.81" viewBox="0 0 66.587 79.81">
  <g id="user_7_" data-name="user (7)" transform="translate(0)">
    <path id="Path_1115" data-name="Path 1115" d="M125.481,19.222a18.6,18.6,0,0,1-5.631,13.592,18.6,18.6,0,0,1-13.592,5.631h-.009a18.6,18.6,0,0,1-13.582-5.631,18.6,18.6,0,0,1-5.631-13.592,18.6,18.6,0,0,1,5.631-13.59A18.6,18.6,0,0,1,106.249,0h.009A18.606,18.606,0,0,1,119.85,5.632a18.6,18.6,0,0,1,5.631,13.59Zm0,0" transform="translate(-73.468 0)" fill="#f95da9"/>
    <path id="Path_1116" data-name="Path 1116" d="M66.587,274.852a13.25,13.25,0,0,1-3.937,10.026,14.168,14.168,0,0,1-10.143,3.7H14.078a14.161,14.161,0,0,1-10.141-3.7A13.248,13.248,0,0,1,0,274.852c0-1.6.053-3.188.159-4.713a47.186,47.186,0,0,1,.647-5.045,39.81,39.81,0,0,1,1.239-5.069A25.142,25.142,0,0,1,4.13,255.3a17.9,17.9,0,0,1,3.142-4.1,13.861,13.861,0,0,1,4.516-2.837,15.612,15.612,0,0,1,5.764-1.042c.814,0,1.6.333,3.122,1.323.951.62,2.047,1.327,3.257,2.1a18.593,18.593,0,0,0,4.209,1.855,16.782,16.782,0,0,0,4.64.823q.255.009.51.009a16.742,16.742,0,0,0,5.151-.832,18.592,18.592,0,0,0,4.211-1.855c1.223-.781,2.319-1.487,3.256-2.1,1.521-.992,2.308-1.325,3.124-1.325a15.62,15.62,0,0,1,5.763,1.042,13.872,13.872,0,0,1,4.515,2.837,17.837,17.837,0,0,1,3.143,4.1,25.056,25.056,0,0,1,2.084,4.728,39.773,39.773,0,0,1,1.241,5.072,47.63,47.63,0,0,1,.645,5.042c.108,1.52.161,3.105.163,4.714Zm0,0" transform="translate(0 -208.768)" fill="#2f40a4"/>
    <path id="Path_1117" data-name="Path 1117" d="M210.3,38.444h-.009V0h.009a18.606,18.606,0,0,1,13.592,5.631,18.6,18.6,0,0,1,5.631,13.59,18.6,18.6,0,0,1-5.631,13.592A18.6,18.6,0,0,1,210.3,38.444Zm0,0" transform="translate(-177.513)" fill="#ed4a99"/>
    <path id="Path_1118" data-name="Path 1118" d="M244.1,274.852a13.25,13.25,0,0,1-3.937,10.026,14.168,14.168,0,0,1-10.143,3.7H210.293V253.422q.255.009.51.009a16.742,16.742,0,0,0,5.151-.832,18.59,18.59,0,0,0,4.211-1.855c1.223-.781,2.319-1.487,3.256-2.1,1.521-.992,2.308-1.325,3.124-1.325a15.62,15.62,0,0,1,5.763,1.042,13.873,13.873,0,0,1,4.515,2.838,17.838,17.838,0,0,1,3.143,4.1,25.056,25.056,0,0,1,2.084,4.728,39.77,39.77,0,0,1,1.241,5.072,47.624,47.624,0,0,1,.645,5.042c.108,1.52.161,3.105.163,4.714Zm0,0" transform="translate(-177.512 -208.768)" fill="#2b3990"/>
  </g>
</svg>
