<svg xmlns="http://www.w3.org/2000/svg" width="25.879" height="35.333" viewBox="0 0 25.879 35.333">
  <g id="Group_606" data-name="Group 606" transform="translate(-805 -488.333)">
    <g id="location_2_" data-name="location(2)" transform="translate(736.5 488.333)">
      <path id="Path_422" data-name="Path 422" d="M81.439,0A12.94,12.94,0,0,0,70.824,20.338L81.013,35.11a.518.518,0,0,0,.852,0L92.053,20.341A12.94,12.94,0,0,0,81.439,0ZM91.2,19.751,81.439,33.9,71.674,19.748a11.9,11.9,0,1,1,19.529,0Z" fill="gray"/>
      <path id="Path_423" data-name="Path 423" d="M171.957,96.729a6.729,6.729,0,1,0-6.729,6.729A6.736,6.736,0,0,0,171.957,96.729Zm-12.422,0a5.693,5.693,0,1,1,5.693,5.693A5.7,5.7,0,0,1,159.535,96.729Z" transform="translate(-83.789 -83.789)" fill="gray"/>
    </g>
  </g>
</svg>
