<svg id="phone-ringing" xmlns="http://www.w3.org/2000/svg" width="22.933" height="22.933" viewBox="0 0 22.933 22.933">
  <path id="Path_859" data-name="Path 859" d="M16.482,22.933a6.389,6.389,0,0,1-2.192-.392A23.375,23.375,0,0,1,5.8,17.131,23.373,23.373,0,0,1,.392,8.643,6.343,6.343,0,0,1,.068,5.525,6.5,6.5,0,0,1,3.411.764,6.386,6.386,0,0,1,6.469,0a.717.717,0,0,1,.7.566L8.295,5.816a.717.717,0,0,1-.194.657L6.179,8.395a18.864,18.864,0,0,0,8.36,8.36l1.922-1.922a.717.717,0,0,1,.657-.194l5.249,1.125a.717.717,0,0,1,.566.7,6.386,6.386,0,0,1-.764,3.058,6.5,6.5,0,0,1-4.762,3.343A6.374,6.374,0,0,1,16.482,22.933ZM5.9,1.465A5.022,5.022,0,0,0,1.739,8.154a21.736,21.736,0,0,0,13.04,13.04,5.022,5.022,0,0,0,6.689-4.157l-4.27-.915-2.007,2.007a.717.717,0,0,1-.811.142A20.292,20.292,0,0,1,4.662,8.554.717.717,0,0,1,4.8,7.742L6.811,5.735Z" transform="translate(0 0)" fill="#2b3990"/>
  <path id="Path_860" data-name="Path 860" d="M251.486,12.183a.717.717,0,0,1-.717-.717A10.044,10.044,0,0,0,240.737,1.433a.717.717,0,0,1,0-1.433A11.466,11.466,0,0,1,252.2,11.466.717.717,0,0,1,251.486,12.183Z" transform="translate(-229.27)" fill="#2b3990"/>
  <path id="Path_861" data-name="Path 861" d="M248.62,73.316a.717.717,0,0,1-.717-.717,7.174,7.174,0,0,0-7.166-7.166.717.717,0,0,1,0-1.433,8.609,8.609,0,0,1,8.6,8.6A.717.717,0,0,1,248.62,73.316Z" transform="translate(-229.27 -61.133)" fill="#2b3990"/>
  <path id="Path_862" data-name="Path 862" d="M245.753,134.45a.717.717,0,0,1-.717-.717,4.3,4.3,0,0,0-4.3-4.3.717.717,0,0,1,0-1.433,5.739,5.739,0,0,1,5.733,5.733A.717.717,0,0,1,245.753,134.45Z" transform="translate(-229.27 -122.267)" fill="#2b3990"/>
</svg>
