<svg id="user_4_" data-name="user (4)" xmlns="http://www.w3.org/2000/svg" width="16.583" height="14.51" viewBox="0 0 16.583 14.51">
  <path id="Path_801" data-name="Path 801" d="M92.242,3.455A3.455,3.455,0,1,1,88.787,0,3.455,3.455,0,0,1,92.242,3.455Zm0,0" transform="translate(-82.568)" fill="#d83968"/>
  <path id="Path_802" data-name="Path 802" d="M9.155,256H3.282A3.286,3.286,0,0,0,0,259.282V261.7a.518.518,0,0,0,.518.518h11.4a.518.518,0,0,0,.518-.518v-2.418A3.286,3.286,0,0,0,9.155,256Zm0,0" transform="translate(0 -247.709)" fill="#d83968"/>
  <path id="Path_803" data-name="Path 803" d="M305.412,109.071l-2.418-2.246a.519.519,0,0,0-.871.38v1.555h-2.764a.691.691,0,0,0,0,1.382h2.764V111.7a.519.519,0,0,0,.871.38l2.418-2.246a.52.52,0,0,0,0-.76Zm0,0" transform="translate(-288.995 -103.233)" fill="#d83968"/>
</svg>
