<svg xmlns="http://www.w3.org/2000/svg" width="21" height="20.997" viewBox="0 0 21 20.997">
  <g id="_7930137721551682747" data-name="7930137721551682747" transform="translate(-13.391 -5.604)">
    <path id="Path_3" data-name="Path 3" d="M26.059,7.72l-2.188-.563a.547.547,0,0,0-.675.437c-.005.031-.007.05-.01.066a1.458,1.458,0,1,1-2.825-.725c.006-.016.014-.034.023-.064A.547.547,0,0,0,20,6.164l-2.112-.543a.547.547,0,0,0-.666.4L13.408,20.865a.547.547,0,0,0,.394.666l4.389,1.129q-.063-.052-.126-.11a.643.643,0,0,1-.1-.774c.052-.09.119-.17.173-.259l-3.53-.9,3.545-13.8,1.08.278A2.553,2.553,0,0,0,24.1,8.347l1.155.3-.689,2.681a.7.7,0,0,1,.872.233.589.589,0,0,1,.189.033l.823-3.2A.547.547,0,0,0,26.059,7.72Z" transform="translate(0 0)" fill="#fff"/>
    <path id="Path_4" data-name="Path 4" d="M30.058,31.064a.374.374,0,0,1-.091-.012l-.442-.113a.365.365,0,1,1,.182-.707l.442.113a.364.364,0,0,1-.09.718Z" transform="translate(-12.969 -20.128)" fill="#fff"/>
    <path id="Path_5" data-name="Path 5" d="M42.038,34.142a.374.374,0,0,1-.091-.012l-.8-.21a.365.365,0,0,1,.182-.707l.8.21a.364.364,0,0,1-.091.718Zm-1.6-.412a.373.373,0,0,1-.091-.012l-.8-.21a.365.365,0,1,1,.182-.707l.8.21a.364.364,0,0,1-.09.718Zm-1.6-.413a.366.366,0,0,1-.091-.012l-.8-.21a.365.365,0,0,1,.182-.707l.8.21a.364.364,0,0,1-.091.718Zm-1.6-.412a.374.374,0,0,1-.091-.012l-.8-.21a.365.365,0,1,1,.182-.707l.8.21a.364.364,0,0,1-.091.718Z" transform="translate(-18.313 -21.559)" fill="#fff"/>
    <path id="Path_6" data-name="Path 6" d="M27.38,63.29a.373.373,0,0,1-.091-.012.365.365,0,0,1-.262-.444L28,59.065a.365.365,0,0,1,.707.182l-.969,3.769A.365.365,0,0,1,27.38,63.29Z" transform="translate(-11.14 -43.488)" fill="#fff"/>
    <path id="Path_7" data-name="Path 7" d="M40.567,48.5a.374.374,0,0,1-.091-.012.365.365,0,0,1-.262-.444l.812-3.157a.365.365,0,0,1,.707.182l-.812,3.157A.365.365,0,0,1,40.567,48.5Z" transform="translate(-21.723 -31.892)" fill="#fff"/>
    <path id="Path_8" data-name="Path 8" d="M34.083,45.209a.377.377,0,0,1-.091-.012.365.365,0,0,1-.262-.444l.51-1.975a.365.365,0,1,1,.707.183l-.512,1.975a.365.365,0,0,1-.351.273Z" transform="translate(-16.472 -30.172)" fill="#fff"/>
    <path id="Path_9" data-name="Path 9" d="M49.545,49.2a.373.373,0,0,1-.091-.012.365.365,0,0,1-.262-.444l.511-1.995a.365.365,0,0,1,.707.182L49.9,48.927A.365.365,0,0,1,49.545,49.2Z" transform="translate(-29.001 -33.422)" fill="#fff"/>
    <path id="Path_10" data-name="Path 10" d="M31.945,41.237h-.019a.579.579,0,0,1-.4-.173l-6.009-6.155a.531.531,0,0,1,.026-.774L37.208,23.652a.587.587,0,0,1,.806.025l1.554,1.592a.535.535,0,0,1,.152.414.542.542,0,0,1-.21.388l-.055.04a1.419,1.419,0,0,0-.07,2.062,1.566,1.566,0,0,0,2.148.067l.045-.049a.581.581,0,0,1,.42-.18h0a.582.582,0,0,1,.42.173l1.609,1.648a.531.531,0,0,1-.026.774L32.331,41.089a.585.585,0,0,1-.385.148Zm-5.2-6.677,5.23,5.354L42.8,30.179l-.85-.871a2.746,2.746,0,0,1-3.4-.389,2.479,2.479,0,0,1-.183-3.282l-.795-.815Z" transform="translate(-9.791 -14.636)" fill="#fff"/>
    <path id="Path_11" data-name="Path 11" d="M70.609,42.236a.364.364,0,0,1-.267-.115l-.315-.333a.365.365,0,0,1,.532-.5l.315.333a.365.365,0,0,1-.267.614Z" transform="translate(-45.821 -29.084)" fill="#fff"/>
    <path id="Path_12" data-name="Path 12" d="M79.066,51.261a.364.364,0,0,1-.267-.115l-.566-.6a.365.365,0,0,1,.532-.5l.566.6a.364.364,0,0,1-.267.614Zm-1.131-1.207a.364.364,0,0,1-.267-.115l-.566-.6a.365.365,0,0,1,.532-.5l.566.6a.364.364,0,0,1-.267.614ZM76.8,48.848a.364.364,0,0,1-.267-.115l-.566-.6a.365.365,0,1,1,.532-.5l.566.6a.365.365,0,0,1-.267.614ZM75.667,47.64a.364.364,0,0,1-.267-.115l-.566-.6a.365.365,0,1,1,.532-.5l.566.6a.364.364,0,0,1-.267.614Z" transform="translate(-49.614 -33.28)" fill="#fff"/>
    <path id="Path_13" data-name="Path 13" d="M100.225,73.85a.364.364,0,0,1-.267-.115l-.315-.333a.365.365,0,1,1,.532-.5l.315.333a.364.364,0,0,1-.267.614Z" transform="translate(-69.822 -54.931)" fill="#fff"/>
    <path id="Path_14" data-name="Path 14" d="M41.988,70.324a.364.364,0,0,1-.249-.63l2.835-2.66a.365.365,0,1,1,.5.532l-2.835,2.66A.363.363,0,0,1,41.988,70.324Z" transform="translate(-22.848 -50.146)" fill="#fff"/>
    <path id="Path_15" data-name="Path 15" d="M47.737,82.257a.364.364,0,0,1-.249-.63l1.459-1.365a.365.365,0,0,1,.5.532L47.987,82.16A.363.363,0,0,1,47.737,82.257Z" transform="translate(-27.523 -60.962)" fill="#fff"/>
    <path id="Path_16" data-name="Path 16" d="M62.524,64.54a.364.364,0,0,1-.249-.63l2.379-2.229a.365.365,0,0,1,.5.532l-2.379,2.229a.363.363,0,0,1-.25.1Z" transform="translate(-39.479 -45.77)" fill="#fff"/>
    <path id="Path_17" data-name="Path 17" d="M61.661,57.558a.364.364,0,0,1-.249-.63l1.49-1.393a.365.365,0,0,1,.5.533l-1.49,1.393a.364.364,0,0,1-.25.1Z" transform="translate(-38.8 -40.743)" fill="#fff"/>
    <path id="Path_18" data-name="Path 18" d="M52.917,81.982a.364.364,0,0,1-.249-.63l2.835-2.66a.365.365,0,1,1,.5.532l-2.835,2.66A.364.364,0,0,1,52.917,81.982Z" transform="translate(-31.689 -59.678)" fill="#fff"/>
    <path id="Path_19" data-name="Path 19" d="M59.234,94.53a.364.364,0,0,1-.249-.63l1.459-1.365a.365.365,0,1,1,.5.532l-1.459,1.365a.363.363,0,0,1-.25.1Z" transform="translate(-36.835 -70.996)" fill="#fff"/>
    <path id="Path_20" data-name="Path 20" d="M74.017,76.811a.364.364,0,0,1-.249-.63l2.38-2.229a.365.365,0,0,1,.5.532l-2.38,2.229A.363.363,0,0,1,74.017,76.811Z" transform="translate(-48.785 -55.803)" fill="#fff"/>
    <path id="Path_21" data-name="Path 21" d="M72.531,69.229a.364.364,0,0,1-.249-.63l1.5-1.4a.365.365,0,1,1,.5.532l-1.5,1.4a.363.363,0,0,1-.25.1Z" transform="translate(-47.604 -50.277)" fill="#fff"/>
  </g>
</svg>
