<svg id="clock_3_" data-name="clock (3)" xmlns="http://www.w3.org/2000/svg" width="26.242" height="26.242" viewBox="0 0 26.242 26.242">
  <g id="Group_1979" data-name="Group 1979" transform="translate(12.105 6.088)">
    <g id="Group_1978" data-name="Group 1978">
      <path id="Path_1109" data-name="Path 1109" d="M241.861,128.129l-3.659-2.744V119.8a1.016,1.016,0,0,0-2.033,0v6.1a1.014,1.014,0,0,0,.407.813l4.065,3.049a1.016,1.016,0,0,0,1.22-1.626Z" transform="translate(-237.169 -118.779)" fill="#9c9c9c"/>
    </g>
  </g>
  <g id="Group_1981" data-name="Group 1981">
    <g id="Group_1980" data-name="Group 1980">
      <path id="Path_1110" data-name="Path 1110" d="M13.121,0A13.121,13.121,0,1,0,26.242,13.121,13.135,13.135,0,0,0,13.121,0Zm0,24.209A11.088,11.088,0,1,1,24.209,13.121,11.1,11.1,0,0,1,13.121,24.209Z" fill="#9c9c9c"/>
    </g>
  </g>
</svg>
