<svg id="Group_1995" data-name="Group 1995" xmlns="http://www.w3.org/2000/svg" width="17.486" height="17.486" viewBox="0 0 17.486 17.486">
  <path id="Path_1113" data-name="Path 1113" d="M8.743,0a8.743,8.743,0,1,0,8.743,8.743A8.749,8.749,0,0,0,8.743,0Zm0,15.677a6.934,6.934,0,1,1,6.934-6.934A6.935,6.935,0,0,1,8.743,15.677Z" fill="#d6d6d6"/>
  <rect id="Rectangle_556" data-name="Rectangle 556" width="0.844" height="1.688" transform="translate(7.596 2.279)" fill="#d6d6d6"/>
  <rect id="Rectangle_557" data-name="Rectangle 557" width="1.688" height="0.844" transform="translate(12.098 7.625)" fill="#d6d6d6"/>
  <rect id="Rectangle_558" data-name="Rectangle 558" width="1.688" height="0.844" transform="translate(2.251 7.625)" fill="#d6d6d6"/>
  <rect id="Rectangle_559" data-name="Rectangle 559" width="0.844" height="1.688" transform="translate(7.596 12.126)" fill="#d6d6d6"/>
  <path id="Path_1114" data-name="Path 1114" d="M261.182,156.038a.415.415,0,0,0-.422-.422h-1.73v-3.151a.422.422,0,0,0-.844,0v3.573a.414.414,0,0,0,.422.422h2.152A.415.415,0,0,0,261.182,156.038Z" transform="translate(-250.59 -147.57)" fill="#d6d6d6"/>
</svg>
