<svg xmlns="http://www.w3.org/2000/svg" width="36.228" height="34.834" viewBox="0 0 36.228 34.834">
  <g id="portfolio-outline-symbol" transform="translate(0 -14.8)">
    <g id="Group_604" data-name="Group 604" transform="translate(0 14.8)">
      <g id="Group_601" data-name="Group 601" transform="translate(0.005 18.962)">
        <path id="Path_419" data-name="Path 419" d="M33.869,433.272H2.549A2.45,2.45,0,0,1,.1,430.823V417.4H14.418v2.143h7.507V417.4h14.4v13.418A2.455,2.455,0,0,1,33.869,433.272ZM1.028,418.337v12.486a1.519,1.519,0,0,0,1.517,1.517H33.869a1.519,1.519,0,0,0,1.517-1.517V418.337H22.858v2.148H13.485v-2.148Z" transform="translate(-0.1 -417.4)" fill="#2b3990"/>
      </g>
      <g id="Group_602" data-name="Group 602" transform="translate(15.853 16.221)">
        <path id="Path_420" data-name="Path 420" d="M341.121,363.048H336.6V359.2h4.521Zm-3.589-.933h2.656v-1.987h-2.656Z" transform="translate(-336.6 -359.2)" fill="#2b3990"/>
      </g>
      <g id="Group_603" data-name="Group 603" transform="translate(0 0)">
        <path id="Path_421" data-name="Path 421" d="M36.228,32.264H21.868V29.975H14.36v2.289H0V24.9a2.45,2.45,0,0,1,2.449-2.449h9v-4.4A3.258,3.258,0,0,1,14.7,14.8h6.537A3.258,3.258,0,0,1,24.5,18.054v4.4h9.283A2.45,2.45,0,0,1,36.228,24.9v7.361ZM22.8,31.331H35.3V24.9a1.523,1.523,0,0,0-1.517-1.521H23.558V18.054a2.324,2.324,0,0,0-2.322-2.322H14.7a2.324,2.324,0,0,0-2.322,2.322v5.331H2.454A1.52,1.52,0,0,0,.937,24.907v6.429h12.5V29.047H22.8v2.284Zm-.895-7.945H14.04V19.293a1.129,1.129,0,0,1,1.1-1.149H20.8a1.126,1.126,0,0,1,1.1,1.149v4.093Zm-6.933-.933h6v-3.16a.2.2,0,0,0-.17-.217H15.142a.2.2,0,0,0-.17.217v3.16Z" transform="translate(0 -14.8)" fill="#2b3990"/>
      </g>
    </g>
  </g>
</svg>
