<svg xmlns="http://www.w3.org/2000/svg" width="28.489" height="28.489" viewBox="0 0 28.489 28.489">
  <path id="world-wide-web" d="M27.7,18.931a14.246,14.246,0,0,0,0-9.372,1.026,1.026,0,0,0-.045-.129A14.245,14.245,0,0,0,.84,9.43a1.012,1.012,0,0,0-.045.129,14.246,14.246,0,0,0,0,9.372,1.026,1.026,0,0,0,.045.129,14.245,14.245,0,0,0,26.812,0A1.018,1.018,0,0,0,27.7,18.931ZM14.246,26.447c-.542,0-1.417-.982-2.148-3.175a22.362,22.362,0,0,1-.841-3.6h5.978a22.381,22.381,0,0,1-.841,3.6C15.663,25.465,14.789,26.447,14.246,26.447Zm-3.237-8.816c-.1-1.089-.15-2.225-.15-3.387s.052-2.3.15-3.387h6.474c.1,1.089.15,2.225.15,3.387s-.052,2.3-.15,3.387ZM2.044,14.245a12.167,12.167,0,0,1,.479-3.387H8.961c-.1,1.111-.144,2.25-.144,3.387s.048,2.276.144,3.387H2.522A12.168,12.168,0,0,1,2.044,14.245Zm12.2-12.2c.542,0,1.417.982,2.148,3.175a22.364,22.364,0,0,1,.841,3.6H11.257a22.36,22.36,0,0,1,.841-3.6C12.829,3.024,13.7,2.042,14.246,2.042Zm5.285,8.816H25.97a12.223,12.223,0,0,1,0,6.774H19.531c.1-1.111.144-2.25.144-3.387S19.627,11.969,19.531,10.858Zm5.641-2.042H19.3a19.6,19.6,0,0,0-1.86-6.35A12.255,12.255,0,0,1,25.172,8.816ZM11.056,2.466A19.6,19.6,0,0,0,9.2,8.816H3.32A12.256,12.256,0,0,1,11.056,2.466ZM3.32,19.673H9.2a19.6,19.6,0,0,0,1.86,6.35A12.256,12.256,0,0,1,3.32,19.673Zm14.116,6.35a19.6,19.6,0,0,0,1.86-6.35h5.875A12.256,12.256,0,0,1,17.437,26.023Z" transform="translate(-0.002)" fill="#2b3990"/>
</svg>
